<svg id="svg" version="1.1" xmlns="http://www.w3.org/2000/svg" xmlns:xlink="http://www.w3.org/1999/xlink" width="400" height="335.9375" viewBox="0, 0, 400,335.9375"><g id="svgg"><path id="path0" d="M51.681 0.245 C 50.063 0.309,48.739 0.508,48.739 0.685 C 48.739 0.863,48.130 1.008,47.384 1.008 C 46.490 1.008,45.964 1.180,45.836 1.513 C 45.716 1.824,45.206 2.017,44.502 2.017 C 43.875 2.017,43.361 2.168,43.361 2.353 C 43.361 2.538,42.681 2.689,41.849 2.689 C 41.017 2.689,40.336 2.840,40.336 3.025 C 40.336 3.210,39.958 3.361,39.496 3.361 C 38.973 3.361,38.655 3.552,38.655 3.866 C 38.655 4.218,38.301 4.370,37.479 4.370 C 36.832 4.370,36.303 4.521,36.303 4.706 C 36.303 4.891,35.924 5.042,35.462 5.042 C 35.000 5.042,34.622 5.193,34.622 5.378 C 34.622 5.563,34.319 5.714,33.950 5.714 C 33.576 5.714,33.277 5.938,33.277 6.218 C 33.277 6.519,32.968 6.723,32.511 6.723 C 32.090 6.723,31.527 7.025,31.261 7.395 C 30.994 7.765,30.431 8.067,30.010 8.067 C 29.553 8.067,29.244 8.271,29.244 8.571 C 29.244 8.852,28.945 9.076,28.571 9.076 C 28.202 9.076,27.899 9.227,27.899 9.412 C 27.899 9.597,27.737 9.748,27.539 9.748 C 27.341 9.748,26.968 9.937,26.710 10.168 C 25.701 11.073,25.230 11.429,25.041 11.429 C 24.932 11.429,24.465 11.807,24.003 12.269 C 23.541 12.731,23.041 13.109,22.892 13.109 C 22.743 13.109,22.146 13.563,21.566 14.118 C 20.985 14.672,20.358 15.126,20.171 15.126 C 19.985 15.126,19.832 15.284,19.832 15.477 C 19.832 15.934,18.287 17.479,17.830 17.479 C 17.637 17.479,17.479 17.637,17.479 17.830 C 17.479 18.287,15.934 19.832,15.477 19.832 C 15.284 19.832,15.126 19.990,15.126 20.183 C 15.126 20.640,13.581 22.185,13.125 22.185 C 12.931 22.185,12.773 22.459,12.773 22.794 C 12.773 23.129,12.471 23.727,12.101 24.124 C 11.731 24.521,11.429 25.003,11.429 25.196 C 11.429 25.389,11.239 25.546,11.006 25.546 C 10.774 25.546,10.367 26.038,10.101 26.639 C 9.835 27.239,9.269 28.108,8.843 28.568 C 8.416 29.028,8.067 29.596,8.067 29.828 C 8.067 30.061,7.916 30.252,7.731 30.252 C 7.546 30.252,7.395 30.555,7.395 30.924 C 7.395 31.294,7.244 31.597,7.059 31.597 C 6.874 31.597,6.723 31.975,6.723 32.437 C 6.723 32.960,6.532 33.277,6.218 33.277 C 5.941 33.277,5.714 33.571,5.714 33.930 C 5.714 34.289,5.563 34.676,5.378 34.790 C 5.193 34.904,5.042 35.291,5.042 35.650 C 5.042 36.009,4.891 36.303,4.706 36.303 C 4.521 36.303,4.370 36.681,4.370 37.143 C 4.370 37.666,4.179 37.983,3.866 37.983 C 3.585 37.983,3.361 38.282,3.361 38.655 C 3.361 39.025,3.210 39.328,3.025 39.328 C 2.840 39.328,2.689 39.857,2.689 40.504 C 2.689 41.151,2.538 41.681,2.353 41.681 C 2.168 41.681,2.017 42.194,2.017 42.821 C 2.017 43.525,1.824 44.036,1.513 44.155 C 1.169 44.287,1.008 44.825,1.008 45.844 C 1.008 46.741,0.840 47.395,0.588 47.479 C -0.029 47.685,-0.029 170.466,0.588 170.672 C 0.840 170.756,1.008 171.408,1.008 172.297 C 1.008 173.392,1.141 173.782,1.513 173.782 C 1.865 173.782,2.017 174.136,2.017 174.958 C 2.017 175.605,2.168 176.134,2.353 176.134 C 2.538 176.134,2.689 176.664,2.689 177.311 C 2.689 177.958,2.840 178.487,3.025 178.487 C 3.210 178.487,3.361 179.017,3.361 179.664 C 3.361 180.486,3.513 180.840,3.866 180.840 C 4.179 180.840,4.370 181.158,4.370 181.681 C 4.370 182.143,4.521 182.521,4.706 182.521 C 4.891 182.521,5.042 182.899,5.042 183.361 C 5.042 183.824,5.193 184.202,5.378 184.202 C 5.563 184.202,5.714 184.504,5.714 184.874 C 5.714 185.247,5.938 185.546,6.218 185.546 C 6.519 185.546,6.723 185.855,6.723 186.312 C 6.723 186.734,7.025 187.297,7.395 187.563 C 7.765 187.830,8.067 188.392,8.067 188.814 C 8.067 189.271,8.271 189.580,8.571 189.580 C 8.852 189.580,9.076 189.879,9.076 190.252 C 9.076 190.622,9.227 190.924,9.412 190.924 C 9.597 190.924,9.748 191.086,9.748 191.285 C 9.748 191.750,10.603 192.605,11.068 192.605 C 11.267 192.605,11.429 192.921,11.429 193.307 C 11.429 193.698,12.100 194.662,12.941 195.480 C 13.773 196.288,14.454 197.084,14.454 197.247 C 14.454 197.593,19.310 202.689,19.639 202.689 C 19.882 202.689,20.445 203.129,21.682 204.286 C 22.126 204.702,22.649 205.042,22.842 205.042 C 23.035 205.042,23.193 205.204,23.193 205.402 C 23.193 205.947,24.082 206.723,24.706 206.723 C 25.330 206.723,26.218 207.499,26.218 208.043 C 26.218 208.241,26.563 208.403,26.985 208.403 C 27.406 208.403,27.969 208.706,28.235 209.076 C 28.502 209.445,28.973 209.748,29.282 209.748 C 29.591 209.748,29.931 209.975,30.038 210.252 C 30.144 210.529,30.505 210.756,30.840 210.756 C 31.174 210.756,31.666 211.059,31.933 211.429 C 32.199 211.798,32.762 212.101,33.183 212.101 C 33.640 212.101,33.950 212.304,33.950 212.605 C 33.950 212.919,34.267 213.109,34.790 213.109 C 35.252 213.109,35.630 213.261,35.630 213.445 C 35.630 213.630,36.160 213.782,36.807 213.782 C 37.454 213.782,37.983 213.933,37.983 214.118 C 37.983 214.303,38.286 214.454,38.655 214.454 C 39.029 214.454,39.328 214.678,39.328 214.958 C 39.328 215.310,39.683 215.462,40.504 215.462 C 41.151 215.462,41.681 215.613,41.681 215.798 C 41.681 215.983,42.210 216.134,42.857 216.134 C 43.504 216.134,44.034 216.286,44.034 216.471 C 44.034 216.655,44.790 216.807,45.714 216.807 C 46.984 216.807,47.395 216.930,47.395 217.311 C 47.395 217.711,47.880 217.815,49.748 217.815 C 51.092 217.815,52.101 217.959,52.101 218.151 C 52.101 218.371,58.655 218.487,71.092 218.487 L 90.084 218.487 90.084 219.328 C 90.084 219.790,89.933 220.168,89.748 220.168 C 89.563 220.168,89.412 220.697,89.412 221.345 C 89.412 221.992,89.261 222.521,89.076 222.521 C 88.891 222.521,88.739 222.807,88.739 223.157 C 88.739 223.507,88.513 223.881,88.235 223.987 C 87.941 224.100,87.731 224.604,87.731 225.200 C 87.731 225.760,87.580 226.218,87.395 226.218 C 87.210 226.218,87.059 226.748,87.059 227.395 C 87.059 228.042,86.908 228.571,86.723 228.571 C 86.538 228.571,86.387 228.950,86.387 229.412 C 86.387 229.874,86.235 230.252,86.050 230.252 C 85.866 230.252,85.714 230.782,85.714 231.429 C 85.714 232.250,85.562 232.605,85.210 232.605 C 84.896 232.605,84.706 232.923,84.706 233.445 C 84.706 233.908,84.555 234.286,84.370 234.286 C 84.185 234.286,84.034 234.731,84.034 235.274 C 84.034 235.818,83.882 236.356,83.697 236.471 C 83.513 236.585,83.361 236.972,83.361 237.331 C 83.361 237.690,83.134 237.983,82.857 237.983 C 82.543 237.983,82.353 238.301,82.353 238.824 C 82.353 239.286,82.202 239.664,82.017 239.664 C 81.832 239.664,81.681 239.966,81.681 240.336 C 81.681 240.706,81.529 241.008,81.345 241.008 C 81.160 241.008,81.008 241.387,81.008 241.849 C 81.008 242.372,80.818 242.689,80.504 242.689 C 80.190 242.689,80.000 243.007,80.000 243.529 C 80.000 243.992,79.849 244.370,79.664 244.370 C 79.479 244.370,79.328 244.672,79.328 245.042 C 79.328 245.412,79.176 245.714,78.992 245.714 C 78.807 245.714,78.655 245.941,78.655 246.218 C 78.655 246.496,78.429 246.723,78.151 246.723 C 77.871 246.723,77.647 247.021,77.647 247.395 C 77.647 247.765,77.496 248.067,77.311 248.067 C 77.126 248.067,76.975 248.294,76.975 248.571 C 76.975 248.849,76.824 249.076,76.639 249.076 C 76.454 249.076,76.303 249.378,76.303 249.748 C 76.303 250.121,76.078 250.420,75.798 250.420 C 75.521 250.420,75.294 250.614,75.294 250.850 C 75.294 251.087,74.992 251.498,74.622 251.765 C 74.252 252.031,73.950 252.594,73.950 253.015 C 73.950 253.437,73.791 253.782,73.598 253.782 C 73.142 253.782,71.597 255.327,71.597 255.783 C 71.597 255.976,71.406 256.134,71.172 256.134 C 70.939 256.134,70.447 256.549,70.080 257.055 C 69.191 258.280,63.706 263.866,63.392 263.866 C 63.018 263.866,62.185 264.777,62.185 265.186 C 62.185 265.384,62.023 265.546,61.825 265.546 C 61.297 265.546,60.696 266.240,60.149 267.479 C 59.885 268.080,59.478 268.571,59.246 268.571 C 58.931 268.571,58.824 269.559,58.824 272.437 C 58.824 275.649,58.909 276.303,59.328 276.303 C 59.641 276.303,59.832 276.620,59.832 277.143 C 59.832 277.605,59.983 277.983,60.168 277.983 C 60.353 277.983,60.504 278.286,60.504 278.655 C 60.504 279.025,60.715 279.328,60.972 279.328 C 61.230 279.328,61.528 279.555,61.634 279.832 C 61.741 280.109,62.026 280.336,62.268 280.336 C 62.510 280.336,62.927 280.639,63.193 281.008 C 63.508 281.445,64.063 281.681,64.780 281.681 C 65.536 281.681,65.882 281.839,65.882 282.185 C 65.882 282.585,66.368 282.689,68.235 282.689 C 70.103 282.689,70.588 282.585,70.588 282.185 C 70.588 281.833,70.943 281.681,71.765 281.681 C 72.412 281.681,72.941 281.529,72.941 281.345 C 72.941 281.160,73.697 281.008,74.622 281.008 C 75.546 281.008,76.303 280.857,76.303 280.672 C 76.303 280.487,76.983 280.336,77.815 280.336 C 78.936 280.336,79.328 280.205,79.328 279.832 C 79.328 279.480,79.683 279.328,80.504 279.328 C 81.151 279.328,81.681 279.176,81.681 278.992 C 81.681 278.807,82.210 278.655,82.857 278.655 C 83.504 278.655,84.034 278.504,84.034 278.319 C 84.034 278.134,84.563 277.983,85.210 277.983 C 86.032 277.983,86.387 277.831,86.387 277.479 C 86.387 277.127,86.741 276.975,87.563 276.975 C 88.210 276.975,88.739 276.824,88.739 276.639 C 88.739 276.454,89.269 276.303,89.916 276.303 C 90.563 276.303,91.092 276.151,91.092 275.966 C 91.092 275.782,91.395 275.630,91.765 275.630 C 92.138 275.630,92.437 275.406,92.437 275.126 C 92.437 274.774,92.792 274.622,93.613 274.622 C 94.261 274.622,94.790 274.471,94.790 274.286 C 94.790 274.101,95.168 273.950,95.630 273.950 C 96.092 273.950,96.471 273.798,96.471 273.613 C 96.471 273.429,97.000 273.277,97.647 273.277 C 98.469 273.277,98.824 273.125,98.824 272.773 C 98.824 272.459,99.141 272.269,99.664 272.269 C 100.126 272.269,100.504 272.118,100.504 271.933 C 100.504 271.748,100.807 271.597,101.176 271.597 C 101.546 271.597,101.849 271.445,101.849 271.261 C 101.849 271.076,102.378 270.924,103.025 270.924 C 103.847 270.924,104.202 270.772,104.202 270.420 C 104.202 270.106,104.519 269.916,105.042 269.916 C 105.504 269.916,105.882 269.765,105.882 269.580 C 105.882 269.395,106.261 269.244,106.723 269.244 C 107.185 269.244,107.563 269.092,107.563 268.908 C 107.563 268.723,107.866 268.571,108.235 268.571 C 108.605 268.571,108.908 268.420,108.908 268.235 C 108.908 268.050,109.286 267.899,109.748 267.899 C 110.271 267.899,110.588 267.709,110.588 267.395 C 110.588 267.081,110.906 266.891,111.429 266.891 C 111.891 266.891,112.269 266.739,112.269 266.555 C 112.269 266.370,112.571 266.218,112.941 266.218 C 113.311 266.218,113.613 266.067,113.613 265.882 C 113.613 265.697,113.992 265.546,114.454 265.546 C 114.977 265.546,115.294 265.356,115.294 265.042 C 115.294 264.762,115.593 264.538,115.966 264.538 C 116.336 264.538,116.639 264.415,116.639 264.264 C 116.639 264.114,117.168 263.783,117.815 263.529 C 118.462 263.276,118.992 262.869,118.992 262.626 C 118.992 262.380,119.362 262.185,119.832 262.185 C 120.294 262.185,120.672 262.034,120.672 261.849 C 120.672 261.664,120.986 261.513,121.369 261.513 C 122.113 261.513,123.025 260.785,123.025 260.192 C 123.025 259.994,123.403 259.832,123.866 259.832 C 124.328 259.832,124.706 259.681,124.706 259.496 C 124.706 259.311,125.008 259.160,125.378 259.160 C 125.748 259.160,126.050 259.008,126.050 258.824 C 126.050 258.639,126.277 258.487,126.555 258.487 C 126.832 258.487,127.059 258.261,127.059 257.983 C 127.059 257.703,127.358 257.479,127.731 257.479 C 128.101 257.479,128.403 257.328,128.403 257.143 C 128.403 256.958,128.630 256.807,128.908 256.807 C 129.185 256.807,129.412 256.655,129.412 256.471 C 129.412 256.286,129.714 256.134,130.084 256.134 C 130.458 256.134,130.756 255.910,130.756 255.630 C 130.756 255.353,130.983 255.126,131.261 255.126 C 131.538 255.126,131.765 254.975,131.765 254.790 C 131.765 254.605,132.067 254.454,132.437 254.454 C 132.807 254.454,133.109 254.303,133.109 254.118 C 133.109 253.933,133.336 253.782,133.613 253.782 C 133.891 253.782,134.118 253.555,134.118 253.277 C 134.118 252.997,134.416 252.773,134.790 252.773 C 135.160 252.773,135.462 252.622,135.462 252.437 C 135.462 252.252,135.624 252.101,135.822 252.101 C 136.288 252.101,137.143 251.246,137.143 250.780 C 137.143 250.582,137.452 250.420,137.830 250.420 C 138.546 250.420,140.168 249.031,140.168 248.419 C 140.168 248.225,140.433 248.067,140.756 248.067 C 141.444 248.066,143.193 246.651,143.193 246.095 C 143.193 245.886,143.420 245.714,143.697 245.714 C 143.975 245.714,144.202 245.591,144.202 245.441 C 144.202 245.291,144.731 244.960,145.378 244.706 C 146.025 244.452,146.555 244.114,146.555 243.956 C 146.555 243.547,148.134 242.017,148.556 242.017 C 148.749 242.017,148.908 241.845,148.908 241.636 C 148.908 241.262,150.162 240.009,150.556 239.990 C 150.666 239.985,151.431 239.380,152.257 238.646 C 153.082 237.912,153.876 237.311,154.021 237.311 C 154.167 237.311,154.286 237.149,154.286 236.951 C 154.286 236.564,155.111 235.630,155.453 235.630 C 155.801 235.630,157.311 234.004,157.311 233.629 C 157.311 233.435,157.469 233.277,157.662 233.277 C 157.997 233.277,159.664 231.784,159.664 231.484 C 159.664 231.406,160.231 230.745,160.924 230.015 C 162.568 228.285,163.697 226.933,163.697 226.696 C 163.697 226.436,164.608 225.546,164.874 225.546 C 165.150 225.546,166.050 224.652,166.050 224.378 C 166.050 224.264,166.429 223.793,166.891 223.331 C 167.353 222.869,167.731 222.339,167.731 222.154 C 167.731 221.710,169.285 220.168,169.733 220.168 C 169.926 220.168,170.084 220.006,170.084 219.808 C 170.084 218.499,170.270 218.487,191.236 218.487 C 204.474 218.487,211.429 218.372,211.429 218.151 C 211.429 217.966,212.261 217.815,213.277 217.815 C 214.697 217.815,215.126 217.698,215.126 217.311 C 215.126 216.930,215.537 216.807,216.807 216.807 C 217.731 216.807,218.487 216.655,218.487 216.471 C 218.487 216.286,219.017 216.134,219.664 216.134 C 220.311 216.134,220.840 215.983,220.840 215.798 C 220.840 215.613,221.370 215.462,222.017 215.462 C 222.838 215.462,223.193 215.310,223.193 214.958 C 223.193 214.606,223.548 214.454,224.370 214.454 C 225.017 214.454,225.546 214.303,225.546 214.118 C 225.546 213.933,225.849 213.782,226.218 213.782 C 226.588 213.782,226.891 213.630,226.891 213.445 C 226.891 213.261,227.269 213.109,227.731 213.109 C 228.254 213.109,228.571 212.919,228.571 212.605 C 228.571 212.325,228.870 212.101,229.244 212.101 C 229.613 212.101,229.916 211.950,229.916 211.765 C 229.916 211.580,230.294 211.429,230.756 211.429 C 231.218 211.429,231.597 211.277,231.597 211.092 C 231.597 210.908,231.975 210.756,232.437 210.756 C 232.899 210.756,233.277 210.594,233.277 210.396 C 233.277 209.852,234.166 209.076,234.790 209.076 C 235.414 209.076,236.303 208.300,236.303 207.755 C 236.303 207.557,236.612 207.395,236.990 207.395 C 237.705 207.395,239.328 206.006,239.328 205.393 C 239.328 205.200,239.602 205.042,239.937 205.042 C 240.272 205.042,240.870 204.739,241.267 204.370 C 241.664 204.000,242.146 203.697,242.339 203.697 C 242.531 203.697,242.689 203.539,242.689 203.346 C 242.689 202.971,244.199 201.345,244.547 201.345 C 244.820 201.345,245.714 200.444,245.714 200.168 C 245.714 199.888,246.610 198.992,246.891 198.992 C 247.158 198.992,248.067 198.101,248.067 197.840 C 248.067 197.735,248.597 197.087,249.244 196.401 C 249.891 195.715,250.420 195.037,250.420 194.894 C 250.420 194.751,250.950 194.089,251.597 193.423 C 252.244 192.756,252.773 191.997,252.773 191.736 C 252.773 191.474,252.924 191.261,253.109 191.261 C 253.294 191.261,253.445 191.034,253.445 190.756 C 253.445 190.479,253.672 190.252,253.950 190.252 C 254.230 190.252,254.454 189.953,254.454 189.580 C 254.454 189.210,254.605 188.908,254.790 188.908 C 254.975 188.908,255.126 188.594,255.126 188.211 C 255.126 187.467,255.853 186.555,256.447 186.555 C 256.645 186.555,256.807 186.176,256.807 185.714 C 256.807 185.252,256.958 184.874,257.143 184.874 C 257.328 184.874,257.479 184.496,257.479 184.034 C 257.479 183.571,257.630 183.193,257.815 183.193 C 258.000 183.193,258.151 182.891,258.151 182.521 C 258.151 182.151,258.303 181.849,258.487 181.849 C 258.672 181.849,258.824 181.319,258.824 180.672 C 258.824 179.851,258.976 179.496,259.328 179.496 C 259.641 179.496,259.832 179.178,259.832 178.655 C 259.832 178.193,259.983 177.815,260.168 177.815 C 260.353 177.815,260.504 177.286,260.504 176.639 C 260.504 175.992,260.655 175.462,260.840 175.462 C 261.025 175.462,261.176 174.782,261.176 173.950 C 261.176 172.829,261.307 172.437,261.681 172.437 C 262.062 172.437,262.185 172.026,262.185 170.756 C 262.185 169.832,262.336 169.076,262.521 169.076 C 262.717 169.076,262.857 167.955,262.857 166.387 C 262.857 164.818,262.997 163.697,263.193 163.697 C 263.416 163.697,263.529 145.266,263.529 109.076 C 263.529 72.885,263.416 54.454,263.193 54.454 C 263.001 54.454,262.857 53.445,262.857 52.101 C 262.857 50.756,262.713 49.748,262.521 49.748 C 262.334 49.748,262.185 48.852,262.185 47.731 C 262.185 46.162,262.073 45.714,261.681 45.714 C 261.329 45.714,261.176 45.359,261.176 44.538 C 261.176 43.891,261.025 43.361,260.840 43.361 C 260.655 43.361,260.504 42.832,260.504 42.185 C 260.504 41.538,260.353 41.008,260.168 41.008 C 259.983 41.008,259.832 40.479,259.832 39.832 C 259.832 39.010,259.680 38.655,259.328 38.655 C 259.014 38.655,258.824 38.338,258.824 37.815 C 258.824 37.353,258.672 36.975,258.487 36.975 C 258.303 36.975,258.151 36.672,258.151 36.303 C 258.151 35.933,258.000 35.630,257.815 35.630 C 257.630 35.630,257.479 35.252,257.479 34.790 C 257.479 34.328,257.328 33.950,257.143 33.950 C 256.958 33.950,256.807 33.647,256.807 33.277 C 256.807 32.904,256.583 32.605,256.303 32.605 C 255.989 32.605,255.798 32.288,255.798 31.765 C 255.798 31.303,255.647 30.924,255.462 30.924 C 255.277 30.924,255.126 30.611,255.126 30.228 C 255.126 29.484,254.399 28.571,253.806 28.571 C 253.607 28.571,253.445 28.269,253.445 27.900 C 253.445 27.531,252.916 26.667,252.269 25.981 C 251.622 25.295,251.092 24.572,251.092 24.374 C 251.092 24.176,250.790 23.796,250.420 23.529 C 250.050 23.263,249.748 22.851,249.748 22.615 C 249.748 22.378,249.586 22.185,249.388 22.185 C 248.932 22.185,248.067 21.333,248.067 20.885 C 248.067 20.447,242.755 15.126,242.317 15.126 C 241.876 15.126,240.336 13.570,240.336 13.125 C 240.336 12.931,240.109 12.773,239.832 12.773 C 239.555 12.773,239.328 12.650,239.328 12.500 C 239.328 12.349,238.798 12.019,238.151 11.765 C 237.504 11.511,236.975 11.169,236.975 11.006 C 236.975 10.518,236.055 9.748,235.472 9.748 C 235.173 9.748,234.521 9.370,234.022 8.908 C 233.524 8.445,232.925 8.067,232.693 8.067 C 232.460 8.067,232.269 7.916,232.269 7.731 C 232.269 7.546,231.966 7.395,231.597 7.395 C 231.227 7.395,230.924 7.244,230.924 7.059 C 230.924 6.874,230.546 6.723,230.084 6.723 C 229.561 6.723,229.244 6.532,229.244 6.218 C 229.244 5.938,228.945 5.714,228.571 5.714 C 228.202 5.714,227.899 5.563,227.899 5.378 C 227.899 5.193,227.521 5.042,227.059 5.042 C 226.597 5.042,226.218 4.891,226.218 4.706 C 226.218 4.521,225.840 4.370,225.378 4.370 C 224.855 4.370,224.538 4.179,224.538 3.866 C 224.538 3.513,224.183 3.361,223.361 3.361 C 222.714 3.361,222.185 3.210,222.185 3.025 C 222.185 2.840,221.655 2.689,221.008 2.689 C 220.361 2.689,219.832 2.538,219.832 2.353 C 219.832 2.168,219.167 2.017,218.355 2.017 C 217.353 2.017,216.817 1.855,216.685 1.513 C 216.558 1.182,216.034 1.008,215.165 1.008 C 214.402 1.008,213.778 0.830,213.698 0.588 C 213.567 0.197,60.968 -0.127,51.681 0.245 M208.067 19.496 C 208.067 19.683,208.964 19.832,210.084 19.832 C 211.653 19.832,212.101 19.944,212.101 20.336 C 212.101 20.688,212.456 20.840,213.277 20.840 C 213.924 20.840,214.454 20.992,214.454 21.176 C 214.454 21.361,214.983 21.513,215.630 21.513 C 216.277 21.513,216.807 21.664,216.807 21.849 C 216.807 22.034,217.336 22.185,217.983 22.185 C 218.805 22.185,219.160 22.337,219.160 22.689 C 219.160 22.973,219.460 23.193,219.846 23.193 C 220.223 23.193,220.857 23.496,221.254 23.866 C 221.651 24.235,222.250 24.538,222.584 24.538 C 222.919 24.538,223.193 24.765,223.193 25.042 C 223.193 25.322,223.492 25.546,223.866 25.546 C 224.235 25.546,224.538 25.697,224.538 25.882 C 224.538 26.067,224.765 26.218,225.042 26.218 C 225.319 26.218,225.546 26.370,225.546 26.555 C 225.546 26.739,225.849 26.891,226.218 26.891 C 226.592 26.891,226.891 27.115,226.891 27.395 C 226.891 27.672,227.049 27.899,227.242 27.899 C 227.698 27.899,229.244 29.444,229.244 29.901 C 229.244 30.094,229.410 30.252,229.613 30.252 C 229.816 30.252,230.406 30.706,230.924 31.261 C 231.442 31.815,232.033 32.269,232.236 32.269 C 232.439 32.269,232.605 32.435,232.605 32.638 C 232.605 32.841,233.059 33.431,233.613 33.950 C 234.168 34.468,234.622 35.058,234.622 35.261 C 234.622 35.464,234.784 35.630,234.982 35.630 C 235.526 35.630,236.303 36.519,236.303 37.143 C 236.303 37.767,237.079 38.655,237.623 38.655 C 237.821 38.655,237.983 38.964,237.983 39.342 C 237.983 39.719,238.286 40.353,238.655 40.750 C 239.025 41.147,239.328 41.745,239.328 42.080 C 239.328 42.415,239.555 42.689,239.832 42.689 C 240.112 42.689,240.336 42.988,240.336 43.361 C 240.336 43.731,240.487 44.034,240.672 44.034 C 240.857 44.034,241.008 44.563,241.008 45.210 C 241.008 45.857,241.160 46.387,241.345 46.387 C 241.529 46.387,241.681 46.765,241.681 47.227 C 241.681 47.750,241.871 48.067,242.185 48.067 C 242.558 48.067,242.689 48.459,242.689 49.580 C 242.689 50.412,242.840 51.092,243.025 51.092 C 243.212 51.092,243.361 51.989,243.361 53.109 C 243.361 54.230,243.511 55.126,243.697 55.126 C 243.920 55.126,244.034 73.445,244.034 109.412 C 244.034 145.378,243.920 163.697,243.697 163.697 C 243.511 163.697,243.361 164.594,243.361 165.714 C 243.361 166.835,243.212 167.731,243.025 167.731 C 242.840 167.731,242.689 168.261,242.689 168.908 C 242.689 169.729,242.537 170.084,242.185 170.084 C 241.833 170.084,241.681 170.439,241.681 171.261 C 241.681 171.908,241.529 172.437,241.345 172.437 C 241.160 172.437,241.008 172.739,241.008 173.109 C 241.008 173.479,240.857 173.782,240.672 173.782 C 240.487 173.782,240.336 174.160,240.336 174.622 C 240.336 175.145,240.146 175.462,239.832 175.462 C 239.518 175.462,239.328 175.780,239.328 176.303 C 239.328 176.765,239.176 177.143,238.992 177.143 C 238.807 177.143,238.655 177.445,238.655 177.815 C 238.655 178.185,238.504 178.487,238.319 178.487 C 238.134 178.487,237.983 178.714,237.983 178.992 C 237.983 179.269,237.756 179.496,237.479 179.496 C 237.199 179.496,236.975 179.795,236.975 180.168 C 236.975 180.538,236.824 180.840,236.639 180.840 C 236.454 180.840,236.303 180.993,236.303 181.180 C 236.303 181.366,235.849 181.994,235.294 182.574 C 234.739 183.154,234.286 183.755,234.286 183.910 C 234.286 184.386,228.866 189.580,228.368 189.580 C 228.110 189.580,227.899 189.731,227.899 189.916 C 227.899 190.101,227.672 190.252,227.395 190.252 C 227.118 190.252,226.891 190.414,226.891 190.612 C 226.891 191.157,226.002 191.933,225.378 191.933 C 224.755 191.933,223.866 192.709,223.866 193.253 C 223.866 193.451,223.487 193.613,223.025 193.613 C 222.563 193.613,222.185 193.765,222.185 193.950 C 222.185 194.134,221.882 194.286,221.513 194.286 C 221.143 194.286,220.840 194.437,220.840 194.622 C 220.840 194.807,220.462 194.958,220.000 194.958 C 219.477 194.958,219.160 195.148,219.160 195.462 C 219.160 195.776,218.842 195.966,218.319 195.966 C 217.857 195.966,217.479 196.118,217.479 196.303 C 217.479 196.487,217.176 196.639,216.807 196.639 C 216.437 196.639,216.134 196.790,216.134 196.975 C 216.134 197.160,215.378 197.311,214.454 197.311 C 213.184 197.311,212.773 197.434,212.773 197.815 C 212.773 198.189,212.381 198.319,211.261 198.319 C 210.429 198.319,209.748 198.471,209.748 198.655 C 209.748 198.852,208.627 198.992,207.059 198.992 C 205.490 198.992,204.370 199.132,204.370 199.328 C 204.370 199.548,197.087 199.664,183.193 199.664 C 164.594 199.664,162.017 199.725,162.017 200.168 C 162.017 200.448,161.718 200.672,161.345 200.672 C 160.975 200.672,160.672 200.824,160.672 201.008 C 160.672 201.193,160.483 201.350,160.252 201.356 C 159.598 201.373,158.319 202.569,158.319 203.163 C 158.319 203.457,158.161 203.697,157.968 203.697 C 157.556 203.697,155.966 205.223,155.966 205.618 C 155.966 205.767,155.588 206.297,155.126 206.795 C 154.664 207.294,154.286 207.795,154.286 207.908 C 154.286 208.213,153.370 209.076,153.047 209.076 C 152.894 209.076,152.558 209.554,152.299 210.138 C 152.040 210.722,150.642 212.376,149.192 213.813 C 147.741 215.250,146.555 216.541,146.555 216.683 C 146.555 217.066,139.557 223.866,139.163 223.866 C 138.976 223.866,138.824 224.092,138.824 224.370 C 138.824 224.647,138.665 224.874,138.472 224.874 C 138.016 224.874,136.471 226.419,136.471 226.875 C 136.471 227.069,136.312 227.227,136.119 227.227 C 135.926 227.227,135.404 227.567,134.959 227.983 C 133.666 229.192,133.157 229.580,132.862 229.580 C 132.710 229.580,132.367 229.882,132.101 230.252 C 131.834 230.622,131.423 230.924,131.186 230.924 C 130.950 230.924,130.756 231.086,130.756 231.285 C 130.756 231.782,129.890 232.603,129.352 232.616 C 128.837 232.628,127.731 233.408,127.731 233.759 C 127.731 234.173,126.791 234.958,126.294 234.958 C 126.032 234.958,125.272 235.487,124.606 236.134 C 123.940 236.782,123.160 237.311,122.874 237.311 C 122.587 237.311,122.353 237.462,122.353 237.647 C 122.353 237.832,122.126 237.983,121.849 237.983 C 121.571 237.983,121.345 238.134,121.345 238.319 C 121.345 238.504,121.042 238.655,120.672 238.655 C 120.299 238.655,120.000 238.880,120.000 239.160 C 120.000 239.437,119.773 239.664,119.496 239.664 C 119.218 239.664,118.992 239.815,118.992 240.000 C 118.992 240.185,118.744 240.336,118.442 240.336 C 118.140 240.336,117.542 240.714,117.113 241.176 C 116.685 241.639,116.134 242.017,115.889 242.017 C 115.643 242.017,115.224 242.319,114.958 242.689 C 114.691 243.059,114.129 243.361,113.707 243.361 C 113.250 243.361,112.941 243.565,112.941 243.866 C 112.941 244.166,112.632 244.370,112.175 244.370 C 111.754 244.370,111.191 244.672,110.924 245.042 C 110.658 245.412,110.095 245.714,109.674 245.714 C 109.217 245.714,108.908 245.918,108.908 246.218 C 108.908 246.499,108.609 246.723,108.235 246.723 C 107.866 246.723,107.563 246.874,107.563 247.059 C 107.563 247.244,107.185 247.395,106.723 247.395 C 106.261 247.395,105.882 247.546,105.882 247.731 C 105.882 247.916,105.504 248.067,105.042 248.067 C 104.519 248.067,104.202 248.258,104.202 248.571 C 104.202 248.852,103.903 249.076,103.529 249.076 C 103.160 249.076,102.857 249.227,102.857 249.412 C 102.857 249.597,102.479 249.748,102.017 249.748 C 101.555 249.748,101.176 249.899,101.176 250.084 C 101.176 250.269,100.798 250.420,100.336 250.420 C 99.813 250.420,99.496 250.611,99.496 250.924 C 99.496 251.204,99.197 251.429,98.824 251.429 C 98.450 251.429,98.151 251.204,98.151 250.924 C 98.151 250.647,98.303 250.420,98.487 250.420 C 98.672 250.420,98.824 250.118,98.824 249.748 C 98.824 249.378,98.975 249.076,99.160 249.076 C 99.345 249.076,99.496 248.697,99.496 248.235 C 99.496 247.712,99.686 247.395,100.000 247.395 C 100.314 247.395,100.504 247.077,100.504 246.555 C 100.504 246.092,100.655 245.714,100.840 245.714 C 101.025 245.714,101.176 245.185,101.176 244.538 C 101.176 243.891,101.328 243.361,101.513 243.361 C 101.697 243.361,101.849 243.059,101.849 242.689 C 101.849 242.316,102.073 242.017,102.353 242.017 C 102.705 242.017,102.857 241.662,102.857 240.840 C 102.857 240.193,103.008 239.664,103.193 239.664 C 103.378 239.664,103.529 239.286,103.529 238.824 C 103.529 238.361,103.681 237.983,103.866 237.983 C 104.050 237.983,104.202 237.454,104.202 236.807 C 104.202 235.985,104.354 235.630,104.706 235.630 C 104.986 235.630,105.210 235.331,105.210 234.958 C 105.210 234.588,105.361 234.286,105.546 234.286 C 105.731 234.286,105.882 233.756,105.882 233.109 C 105.882 232.462,106.034 231.933,106.218 231.933 C 106.403 231.933,106.555 231.420,106.555 230.792 C 106.555 230.089,106.748 229.578,107.059 229.458 C 107.354 229.345,107.563 228.841,107.563 228.246 C 107.563 227.685,107.714 227.227,107.899 227.227 C 108.084 227.227,108.235 226.697,108.235 226.050 C 108.235 225.403,108.387 224.874,108.571 224.874 C 108.756 224.874,108.908 224.361,108.908 223.733 C 108.908 223.030,109.101 222.519,109.412 222.399 C 109.707 222.286,109.916 221.783,109.916 221.187 C 109.916 220.627,110.067 220.168,110.252 220.168 C 110.437 220.168,110.588 219.412,110.588 218.487 C 110.588 217.563,110.739 216.807,110.924 216.807 C 111.109 216.807,111.261 216.277,111.261 215.630 C 111.261 214.809,111.413 214.454,111.765 214.454 C 112.138 214.454,112.269 214.062,112.269 212.941 C 112.269 212.109,112.420 211.429,112.605 211.429 C 112.797 211.429,112.941 210.420,112.941 209.076 C 112.941 207.731,112.797 206.723,112.605 206.723 C 112.420 206.723,112.269 206.193,112.269 205.546 C 112.269 204.899,112.107 204.370,111.909 204.370 C 111.453 204.370,110.810 203.731,110.293 202.766 C 110.073 202.354,109.704 202.017,109.474 202.017 C 109.244 202.017,108.838 201.714,108.571 201.345 C 108.305 200.975,107.742 200.672,107.321 200.672 C 106.864 200.672,106.555 200.469,106.555 200.168 C 106.555 199.725,103.641 199.664,82.353 199.664 C 66.443 199.664,58.151 199.549,58.151 199.328 C 58.151 199.132,57.031 198.992,55.462 198.992 C 53.894 198.992,52.773 198.852,52.773 198.655 C 52.773 198.471,52.092 198.319,51.261 198.319 C 50.140 198.319,49.748 198.189,49.748 197.815 C 49.748 197.463,49.393 197.311,48.571 197.311 C 47.924 197.311,47.395 197.160,47.395 196.975 C 47.395 196.790,46.866 196.639,46.218 196.639 C 45.571 196.639,45.042 196.487,45.042 196.303 C 45.042 196.118,44.664 195.966,44.202 195.966 C 43.679 195.966,43.361 195.776,43.361 195.462 C 43.361 195.148,43.044 194.958,42.521 194.958 C 42.059 194.958,41.681 194.807,41.681 194.622 C 41.681 194.437,41.378 194.286,41.008 194.286 C 40.639 194.286,40.336 194.134,40.336 193.950 C 40.336 193.765,40.109 193.613,39.832 193.613 C 39.555 193.613,39.328 193.387,39.328 193.109 C 39.328 192.829,39.029 192.605,38.655 192.605 C 38.286 192.605,37.983 192.454,37.983 192.269 C 37.983 192.084,37.756 191.933,37.479 191.933 C 37.202 191.933,36.975 191.782,36.975 191.597 C 36.975 191.412,36.672 191.261,36.303 191.261 C 35.929 191.261,35.630 191.036,35.630 190.756 C 35.630 190.479,35.472 190.252,35.279 190.252 C 34.823 190.252,33.277 188.707,33.277 188.251 C 33.277 188.057,33.121 187.899,32.931 187.899 C 32.563 187.899,28.571 184.045,28.571 183.690 C 28.571 183.347,27.638 182.521,27.251 182.521 C 27.053 182.521,26.891 182.218,26.891 181.849 C 26.891 181.479,26.739 181.176,26.555 181.176 C 26.370 181.176,26.218 181.014,26.218 180.816 C 26.218 180.351,25.363 179.496,24.898 179.496 C 24.700 179.496,24.538 179.118,24.538 178.655 C 24.538 178.193,24.387 177.815,24.202 177.815 C 24.017 177.815,23.866 177.437,23.866 176.975 C 23.866 176.513,23.714 176.134,23.529 176.134 C 23.345 176.134,23.193 175.832,23.193 175.462 C 23.193 175.089,22.969 174.790,22.689 174.790 C 22.375 174.790,22.185 174.472,22.185 173.950 C 22.185 173.487,22.034 173.109,21.849 173.109 C 21.664 173.109,21.513 172.731,21.513 172.269 C 21.513 171.807,21.361 171.429,21.176 171.429 C 20.992 171.429,20.840 170.991,20.840 170.456 C 20.840 169.902,20.624 169.400,20.336 169.290 C 19.991 169.158,19.832 168.617,19.832 167.574 C 19.832 166.736,19.681 166.050,19.496 166.050 C 19.304 166.050,19.160 165.042,19.160 163.697 C 19.160 162.353,19.016 161.345,18.824 161.345 C 18.601 161.345,18.487 143.810,18.487 109.412 C 18.487 75.014,18.601 57.479,18.824 57.479 C 19.016 57.479,19.160 56.471,19.160 55.126 C 19.160 53.782,19.304 52.773,19.496 52.773 C 19.681 52.773,19.832 52.092,19.832 51.261 C 19.832 50.140,19.963 49.748,20.336 49.748 C 20.688 49.748,20.840 49.393,20.840 48.571 C 20.840 47.924,20.992 47.395,21.176 47.395 C 21.361 47.395,21.513 46.866,21.513 46.218 C 21.513 45.571,21.664 45.042,21.849 45.042 C 22.034 45.042,22.185 44.664,22.185 44.202 C 22.185 43.679,22.375 43.361,22.689 43.361 C 23.003 43.361,23.193 43.044,23.193 42.521 C 23.193 42.059,23.316 41.681,23.467 41.681 C 23.617 41.681,23.948 41.151,24.202 40.504 C 24.456 39.857,24.862 39.328,25.105 39.328 C 25.348 39.328,25.546 39.025,25.546 38.655 C 25.546 38.286,25.697 37.983,25.882 37.983 C 26.067 37.983,26.218 37.821,26.218 37.623 C 26.218 37.158,27.074 36.303,27.539 36.303 C 27.737 36.303,27.899 35.995,27.899 35.619 C 27.899 34.918,29.954 32.605,30.577 32.605 C 30.768 32.605,30.924 32.447,30.924 32.254 C 30.924 32.060,31.296 31.531,31.749 31.077 C 32.203 30.623,32.733 30.252,32.926 30.252 C 33.119 30.252,33.277 30.090,33.277 29.892 C 33.277 29.356,34.162 28.571,34.766 28.571 C 35.056 28.571,35.294 28.420,35.294 28.235 C 35.294 28.050,35.521 27.899,35.798 27.899 C 36.076 27.899,36.303 27.737,36.303 27.539 C 36.303 26.995,37.191 26.218,37.815 26.218 C 38.439 26.218,39.328 25.442,39.328 24.898 C 39.328 24.700,39.706 24.538,40.168 24.538 C 40.630 24.538,41.008 24.387,41.008 24.202 C 41.008 24.017,41.387 23.866,41.849 23.866 C 42.311 23.866,42.689 23.714,42.689 23.529 C 42.689 23.345,42.992 23.193,43.361 23.193 C 43.735 23.193,44.034 22.969,44.034 22.689 C 44.034 22.375,44.351 22.185,44.874 22.185 C 45.336 22.185,45.714 22.034,45.714 21.849 C 45.714 21.664,46.244 21.513,46.891 21.513 C 47.538 21.513,48.067 21.361,48.067 21.176 C 48.067 20.992,48.748 20.840,49.580 20.840 C 50.700 20.840,51.092 20.710,51.092 20.336 C 51.092 19.944,51.541 19.832,53.109 19.832 C 54.230 19.832,55.126 19.683,55.126 19.496 C 55.126 19.273,80.840 19.160,131.597 19.160 C 182.353 19.160,208.067 19.273,208.067 19.496 M292.437 53.950 C 292.437 54.302,292.082 54.454,291.261 54.454 C 290.613 54.454,290.084 54.605,290.084 54.790 C 290.084 54.975,289.845 55.126,289.553 55.126 C 288.788 55.126,286.387 57.665,286.387 58.474 C 286.387 58.851,286.235 59.160,286.050 59.160 C 285.866 59.160,285.714 59.689,285.714 60.336 C 285.714 61.158,285.562 61.513,285.210 61.513 C 284.823 61.513,284.706 61.942,284.706 63.361 C 284.706 64.781,284.823 65.210,285.210 65.210 C 285.562 65.210,285.714 65.565,285.714 66.387 C 285.714 67.034,285.866 67.563,286.050 67.563 C 286.235 67.563,286.387 67.872,286.387 68.251 C 286.387 68.966,287.776 70.588,288.388 70.588 C 288.581 70.588,288.739 70.815,288.739 71.092 C 288.739 71.373,289.038 71.597,289.412 71.597 C 289.782 71.597,290.084 71.748,290.084 71.933 C 290.084 72.118,290.462 72.269,290.924 72.269 C 291.387 72.269,291.765 72.420,291.765 72.605 C 291.765 72.826,300.728 72.941,317.983 72.941 C 341.064 72.941,344.202 73.002,344.202 73.445 C 344.202 73.846,344.687 73.950,346.555 73.950 C 347.899 73.950,348.908 74.094,348.908 74.286 C 348.908 74.471,349.437 74.622,350.084 74.622 C 350.731 74.622,351.261 74.773,351.261 74.958 C 351.261 75.143,351.790 75.294,352.437 75.294 C 353.259 75.294,353.613 75.446,353.613 75.798 C 353.613 76.150,353.968 76.303,354.790 76.303 C 355.437 76.303,355.966 76.454,355.966 76.639 C 355.966 76.824,356.269 76.975,356.639 76.975 C 357.008 76.975,357.311 77.126,357.311 77.311 C 357.311 77.496,357.689 77.647,358.151 77.647 C 358.616 77.647,358.992 77.842,358.992 78.084 C 358.992 78.324,359.521 78.712,360.168 78.946 C 360.815 79.180,361.345 79.513,361.345 79.686 C 361.345 79.859,361.540 80.000,361.779 80.000 C 362.018 80.000,362.774 80.529,363.460 81.176 C 364.146 81.824,364.794 82.353,364.899 82.353 C 365.004 82.353,365.301 82.542,365.559 82.773 C 366.576 83.686,367.039 84.034,367.237 84.034 C 367.510 84.034,368.403 84.935,368.403 85.210 C 368.403 85.491,369.299 86.387,369.580 86.387 C 369.929 86.387,370.756 87.315,370.756 87.707 C 370.756 87.905,370.908 88.067,371.092 88.067 C 371.277 88.067,371.429 88.263,371.429 88.501 C 371.429 88.740,371.934 89.472,372.553 90.127 C 373.171 90.783,373.888 91.797,374.147 92.382 C 374.406 92.967,374.808 93.445,375.040 93.445 C 375.272 93.445,375.462 93.790,375.462 94.212 C 375.462 94.633,375.765 95.196,376.134 95.462 C 376.504 95.729,376.807 96.221,376.807 96.555 C 376.807 96.890,377.034 97.251,377.311 97.357 C 377.588 97.464,377.815 97.837,377.815 98.187 C 377.815 98.537,377.966 98.824,378.151 98.824 C 378.336 98.824,378.487 99.353,378.487 100.000 C 378.487 100.647,378.639 101.176,378.824 101.176 C 379.008 101.176,379.160 101.706,379.160 102.353 C 379.160 103.175,379.312 103.529,379.664 103.529 C 380.037 103.529,380.168 103.922,380.168 105.042 C 380.168 105.874,380.319 106.555,380.504 106.555 C 380.696 106.555,380.840 107.563,380.840 108.908 C 380.840 110.252,380.984 111.261,381.176 111.261 C 381.399 111.261,381.513 128.852,381.513 163.361 C 381.513 197.871,381.399 215.462,381.176 215.462 C 380.984 215.462,380.840 216.471,380.840 217.815 C 380.840 219.160,380.696 220.168,380.504 220.168 C 380.319 220.168,380.168 220.849,380.168 221.681 C 380.168 222.801,380.037 223.193,379.664 223.193 C 379.312 223.193,379.160 223.548,379.160 224.370 C 379.160 225.017,379.008 225.546,378.824 225.546 C 378.639 225.546,378.487 225.924,378.487 226.387 C 378.487 226.849,378.336 227.227,378.151 227.227 C 377.966 227.227,377.815 227.529,377.815 227.899 C 377.815 228.273,377.591 228.571,377.311 228.571 C 376.997 228.571,376.807 228.889,376.807 229.412 C 376.807 229.874,376.655 230.252,376.471 230.252 C 376.286 230.252,376.134 230.630,376.134 231.092 C 376.134 231.555,375.983 231.933,375.798 231.933 C 375.613 231.933,375.462 232.235,375.462 232.605 C 375.462 232.979,375.238 233.277,374.958 233.277 C 374.681 233.277,374.454 233.504,374.454 233.782 C 374.454 234.059,374.303 234.286,374.118 234.286 C 373.933 234.286,373.782 234.539,373.782 234.848 C 373.782 235.157,373.101 236.062,372.269 236.859 C 371.437 237.656,370.756 238.403,370.756 238.518 C 370.756 238.797,367.452 242.006,366.293 242.853 C 365.790 243.220,365.378 243.712,365.378 243.945 C 365.378 244.179,365.221 244.370,365.028 244.370 C 364.835 244.370,364.353 244.672,363.956 245.042 C 363.559 245.412,362.961 245.714,362.626 245.714 C 362.291 245.714,362.017 245.876,362.017 246.074 C 362.017 246.668,361.104 247.395,360.360 247.395 C 359.977 247.395,359.664 247.546,359.664 247.731 C 359.664 247.916,359.361 248.067,358.992 248.067 C 358.618 248.067,358.319 248.291,358.319 248.571 C 358.319 248.885,358.002 249.076,357.479 249.076 C 357.017 249.076,356.639 249.227,356.639 249.412 C 356.639 249.597,356.261 249.748,355.798 249.748 C 355.336 249.748,354.958 249.899,354.958 250.084 C 354.958 250.269,354.429 250.420,353.782 250.420 C 352.960 250.420,352.605 250.572,352.605 250.924 C 352.605 251.277,352.250 251.429,351.429 251.429 C 350.782 251.429,350.252 251.580,350.252 251.765 C 350.252 251.950,349.723 252.101,349.076 252.101 C 348.429 252.101,347.899 252.252,347.899 252.437 C 347.899 252.633,346.779 252.773,345.210 252.773 C 343.044 252.773,342.521 252.871,342.521 253.277 C 342.521 253.721,339.570 253.782,317.983 253.782 C 301.849 253.782,293.445 253.897,293.445 254.118 C 293.445 254.303,293.132 254.454,292.749 254.454 C 292.005 254.454,291.092 255.181,291.092 255.774 C 291.092 255.972,290.934 256.134,290.741 256.134 C 290.129 256.134,288.739 257.757,288.739 258.472 C 288.739 258.859,288.519 259.160,288.235 259.160 C 287.922 259.160,287.731 259.477,287.731 260.000 C 287.731 260.462,287.580 260.840,287.395 260.840 C 287.203 260.840,287.059 261.849,287.059 263.193 C 287.059 264.538,287.203 265.546,287.395 265.546 C 287.580 265.546,287.731 266.156,287.731 266.901 C 287.731 267.796,287.902 268.322,288.235 268.450 C 288.546 268.569,288.739 269.080,288.739 269.784 C 288.739 270.411,288.891 270.924,289.076 270.924 C 289.261 270.924,289.412 271.605,289.412 272.437 C 289.412 273.269,289.563 273.950,289.748 273.950 C 289.933 273.950,290.084 274.479,290.084 275.126 C 290.084 275.948,290.236 276.303,290.588 276.303 C 290.940 276.303,291.092 276.657,291.092 277.479 C 291.092 278.126,291.244 278.655,291.429 278.655 C 291.613 278.655,291.765 279.185,291.765 279.832 C 291.765 280.479,291.916 281.008,292.101 281.008 C 292.286 281.008,292.437 281.538,292.437 282.185 C 292.437 283.007,292.589 283.361,292.941 283.361 C 293.293 283.361,293.445 283.716,293.445 284.538 C 293.445 285.185,293.597 285.714,293.782 285.714 C 293.966 285.714,294.118 286.244,294.118 286.891 C 294.118 287.538,294.269 288.067,294.454 288.067 C 294.639 288.067,294.790 288.597,294.790 289.244 C 294.790 290.065,294.942 290.420,295.294 290.420 C 295.608 290.420,295.798 290.738,295.798 291.261 C 295.798 291.723,295.950 292.101,296.134 292.101 C 296.319 292.101,296.471 292.630,296.471 293.277 C 296.471 293.924,296.622 294.454,296.807 294.454 C 296.992 294.454,297.143 294.756,297.143 295.126 C 297.143 295.500,297.367 295.798,297.647 295.798 C 297.961 295.798,298.151 296.116,298.151 296.639 C 298.151 297.101,298.303 297.479,298.487 297.479 C 298.672 297.479,298.824 298.008,298.824 298.655 C 298.824 299.303,298.975 299.832,299.160 299.832 C 299.345 299.832,299.496 300.139,299.496 300.515 C 299.496 300.890,299.723 301.285,300.000 301.391 C 300.277 301.497,300.504 301.871,300.504 302.221 C 300.504 302.571,300.655 302.857,300.840 302.857 C 301.025 302.857,301.176 303.235,301.176 303.697 C 301.176 304.160,301.328 304.538,301.513 304.538 C 301.697 304.538,301.849 304.840,301.849 305.210 C 301.849 305.580,301.697 305.882,301.513 305.882 C 301.328 305.882,301.176 305.731,301.176 305.546 C 301.176 305.361,300.798 305.210,300.336 305.210 C 299.874 305.210,299.496 305.059,299.496 304.874 C 299.496 304.689,299.209 304.538,298.859 304.538 C 298.510 304.538,298.136 304.311,298.030 304.034 C 297.923 303.756,297.529 303.529,297.153 303.529 C 296.778 303.529,296.471 303.378,296.471 303.193 C 296.471 303.008,296.126 302.857,295.704 302.857 C 295.283 302.857,294.720 302.555,294.454 302.185 C 294.187 301.815,293.624 301.513,293.203 301.513 C 292.746 301.513,292.437 301.309,292.437 301.008 C 292.437 300.728,292.138 300.504,291.765 300.504 C 291.395 300.504,291.092 300.353,291.092 300.168 C 291.092 299.983,290.714 299.832,290.252 299.832 C 289.790 299.832,289.412 299.681,289.412 299.496 C 289.412 299.311,289.250 299.160,289.052 299.160 C 288.854 299.160,288.481 298.971,288.223 298.739 C 287.057 297.694,286.718 297.479,286.233 297.479 C 285.948 297.479,285.714 297.328,285.714 297.143 C 285.714 296.958,285.557 296.807,285.364 296.807 C 285.034 296.807,284.654 296.544,283.542 295.546 C 283.284 295.315,282.825 295.126,282.521 295.126 C 281.897 295.126,281.008 294.350,281.008 293.806 C 281.008 293.607,280.734 293.445,280.400 293.445 C 280.065 293.445,279.466 293.143,279.069 292.773 C 278.672 292.403,278.255 292.101,278.141 292.101 C 278.028 292.101,277.724 291.912,277.467 291.681 C 276.354 290.683,275.974 290.420,275.644 290.420 C 275.452 290.420,275.294 290.269,275.294 290.084 C 275.294 289.899,274.992 289.748,274.622 289.748 C 274.248 289.748,273.950 289.524,273.950 289.244 C 273.950 288.966,273.756 288.739,273.520 288.739 C 273.283 288.739,272.872 288.437,272.605 288.067 C 272.339 287.697,271.959 287.395,271.761 287.395 C 271.563 287.395,270.839 286.866,270.153 286.218 C 269.467 285.571,268.755 285.042,268.571 285.042 C 268.386 285.042,268.235 284.833,268.235 284.579 C 268.235 284.324,267.744 283.914,267.143 283.668 C 266.038 283.217,265.210 282.581,265.210 282.185 C 265.210 281.917,264.320 281.008,264.057 281.008 C 263.951 281.008,263.284 280.441,262.575 279.748 C 260.721 277.937,259.602 276.975,259.349 276.975 C 259.070 276.975,257.479 275.395,257.479 275.117 C 257.479 274.844,256.578 273.950,256.303 273.950 C 256.022 273.950,255.126 273.054,255.126 272.773 C 255.126 272.434,254.202 271.597,253.828 271.597 C 253.643 271.597,253.387 271.271,253.261 270.873 C 253.135 270.475,252.444 269.573,251.726 268.869 C 251.008 268.166,250.420 267.497,250.420 267.384 C 250.420 267.112,249.519 266.218,249.244 266.218 C 248.963 266.218,248.067 265.322,248.067 265.042 C 248.067 264.923,247.878 264.615,247.647 264.357 C 246.742 263.348,246.387 262.877,246.387 262.688 C 246.387 262.347,244.754 260.840,244.385 260.840 C 244.192 260.840,244.034 260.496,244.034 260.074 C 244.034 259.653,243.731 259.090,243.361 258.824 C 242.992 258.557,242.689 258.145,242.689 257.909 C 242.689 257.672,242.531 257.479,242.338 257.479 C 241.881 257.479,240.336 255.934,240.336 255.477 C 240.336 255.284,240.109 255.126,239.832 255.126 C 239.555 255.126,239.328 254.975,239.328 254.790 C 239.328 254.605,239.025 254.454,238.655 254.454 C 238.286 254.454,237.983 254.303,237.983 254.118 C 237.983 253.897,230.476 253.782,216.134 253.782 C 196.937 253.782,194.286 253.720,194.286 253.277 C 194.286 252.877,193.800 252.773,191.933 252.773 C 190.588 252.773,189.580 252.629,189.580 252.437 C 189.580 252.252,188.824 252.101,187.899 252.101 C 186.975 252.101,186.218 251.950,186.218 251.765 C 186.218 251.580,185.689 251.429,185.042 251.429 C 184.220 251.429,183.866 251.277,183.866 250.924 C 183.866 250.572,183.511 250.420,182.689 250.420 C 182.042 250.420,181.513 250.269,181.513 250.084 C 181.513 249.899,181.210 249.748,180.840 249.748 C 180.471 249.748,180.168 249.597,180.168 249.412 C 180.168 249.227,179.790 249.076,179.328 249.076 C 178.858 249.076,178.487 248.881,178.487 248.634 C 178.487 248.391,177.958 247.985,177.311 247.731 C 176.664 247.477,176.134 247.146,176.134 246.996 C 176.134 246.846,175.454 246.723,174.622 246.723 C 173.501 246.723,173.109 246.592,173.109 246.218 C 173.109 245.866,172.754 245.714,171.933 245.714 C 171.111 245.714,170.756 245.866,170.756 246.218 C 170.756 246.592,170.364 246.723,169.244 246.723 C 168.412 246.723,167.731 246.844,167.731 246.991 C 167.731 247.139,167.202 247.451,166.555 247.685 C 165.908 247.919,165.378 248.328,165.378 248.593 C 165.378 248.859,165.216 249.076,165.018 249.076 C 164.425 249.076,163.697 249.988,163.697 250.732 C 163.697 251.115,163.546 251.429,163.361 251.429 C 163.176 251.429,163.025 251.731,163.025 252.101 C 163.025 252.474,162.801 252.773,162.521 252.773 C 162.112 252.773,162.017 253.315,162.017 255.630 C 162.017 257.946,162.112 258.487,162.521 258.487 C 162.859 258.487,163.025 258.825,163.025 259.511 C 163.025 260.519,164.272 262.185,165.027 262.185 C 165.220 262.185,165.378 262.343,165.378 262.536 C 165.378 263.149,167.000 264.538,167.716 264.538 C 168.103 264.538,168.403 264.758,168.403 265.042 C 168.403 265.356,168.721 265.546,169.244 265.546 C 169.706 265.546,170.084 265.697,170.084 265.882 C 170.084 266.067,170.387 266.218,170.756 266.218 C 171.126 266.218,171.429 266.370,171.429 266.555 C 171.429 266.739,171.807 266.891,172.269 266.891 C 172.792 266.891,173.109 267.081,173.109 267.395 C 173.109 267.675,173.408 267.899,173.782 267.899 C 174.151 267.899,174.454 268.050,174.454 268.235 C 174.454 268.420,174.832 268.571,175.294 268.571 C 175.756 268.571,176.134 268.723,176.134 268.908 C 176.134 269.092,176.664 269.244,177.311 269.244 C 177.958 269.244,178.487 269.395,178.487 269.580 C 178.487 269.765,179.017 269.916,179.664 269.916 C 180.486 269.916,180.840 270.068,180.840 270.420 C 180.840 270.794,181.232 270.924,182.353 270.924 C 183.185 270.924,183.866 271.076,183.866 271.261 C 183.866 271.447,184.762 271.597,185.882 271.597 C 187.003 271.597,187.899 271.746,187.899 271.933 C 187.899 272.137,189.412 272.269,191.765 272.269 C 194.977 272.269,195.630 272.354,195.630 272.773 C 195.630 273.215,197.759 273.277,212.773 273.277 C 223.978 273.277,229.916 273.394,229.916 273.613 C 229.916 273.798,230.078 273.950,230.276 273.950 C 230.809 273.950,231.400 274.651,231.904 275.882 C 232.149 276.483,232.559 276.975,232.814 276.975 C 233.069 276.975,233.277 277.133,233.277 277.326 C 233.277 277.782,234.823 279.328,235.279 279.328 C 235.472 279.328,235.630 279.555,235.630 279.832 C 235.630 280.109,235.782 280.336,235.966 280.336 C 236.151 280.336,236.303 280.504,236.303 280.709 C 236.303 281.059,236.746 281.613,238.571 283.540 C 238.987 283.980,239.328 284.497,239.328 284.691 C 239.328 284.884,239.486 285.042,239.679 285.042 C 240.135 285.042,241.681 286.587,241.681 287.044 C 241.681 287.237,241.839 287.395,242.032 287.395 C 242.488 287.395,244.034 288.940,244.034 289.396 C 244.034 289.590,244.192 289.748,244.385 289.748 C 244.841 289.748,246.387 291.293,246.387 291.749 C 246.387 291.943,246.545 292.101,246.738 292.101 C 246.931 292.101,247.449 292.441,247.888 292.857 C 249.816 294.682,250.370 295.126,250.720 295.126 C 250.925 295.126,251.092 295.277,251.092 295.462 C 251.092 295.647,251.319 295.798,251.597 295.798 C 251.874 295.798,252.101 295.956,252.101 296.150 C 252.101 296.606,253.646 298.151,254.102 298.151 C 254.296 298.151,254.454 298.360,254.454 298.615 C 254.454 298.870,254.945 299.279,255.546 299.525 C 256.651 299.977,257.479 300.612,257.479 301.008 C 257.479 301.354,258.240 301.977,259.328 302.521 C 260.496 303.105,261.176 303.692,261.176 304.115 C 261.176 304.279,261.706 304.620,262.353 304.874 C 263.000 305.128,263.529 305.459,263.529 305.609 C 263.529 305.759,263.756 305.882,264.034 305.882 C 264.311 305.882,264.538 306.109,264.538 306.387 C 264.538 306.667,264.837 306.891,265.210 306.891 C 265.580 306.891,265.882 307.042,265.882 307.227 C 265.882 307.412,266.040 307.563,266.233 307.563 C 266.426 307.563,266.992 307.941,267.490 308.403 C 267.989 308.866,268.518 309.244,268.666 309.244 C 268.814 309.244,269.260 309.546,269.657 309.916 C 270.054 310.286,270.653 310.588,270.988 310.588 C 271.323 310.588,271.597 310.815,271.597 311.092 C 271.597 311.373,271.895 311.597,272.269 311.597 C 272.639 311.597,272.941 311.748,272.941 311.933 C 272.941 312.118,273.168 312.269,273.445 312.269 C 273.723 312.269,273.950 312.420,273.950 312.605 C 273.950 312.790,274.252 312.941,274.622 312.941 C 274.995 312.941,275.294 313.165,275.294 313.445 C 275.294 313.723,275.521 313.950,275.798 313.950 C 276.076 313.950,276.303 314.101,276.303 314.286 C 276.303 314.471,276.605 314.622,276.975 314.622 C 277.345 314.622,277.647 314.773,277.647 314.958 C 277.647 315.143,278.025 315.294,278.487 315.294 C 278.953 315.294,279.328 315.489,279.328 315.731 C 279.328 315.971,279.857 316.359,280.504 316.593 C 281.151 316.827,281.681 317.160,281.681 317.333 C 281.681 317.506,282.059 317.647,282.521 317.647 C 283.044 317.647,283.361 317.838,283.361 318.151 C 283.361 318.431,283.660 318.655,284.034 318.655 C 284.403 318.655,284.706 318.807,284.706 318.992 C 284.706 319.176,285.084 319.328,285.546 319.328 C 286.008 319.328,286.387 319.479,286.387 319.664 C 286.387 319.849,286.673 320.000,287.023 320.000 C 287.373 320.000,287.746 320.227,287.853 320.504 C 287.959 320.782,288.353 321.008,288.729 321.008 C 289.104 321.008,289.412 321.160,289.412 321.345 C 289.412 321.529,289.790 321.681,290.252 321.681 C 290.714 321.681,291.092 321.832,291.092 322.017 C 291.092 322.202,291.379 322.353,291.729 322.353 C 292.079 322.353,292.452 322.580,292.559 322.857 C 292.665 323.134,293.059 323.361,293.435 323.361 C 293.810 323.361,294.118 323.513,294.118 323.697 C 294.118 323.882,294.496 324.034,294.958 324.034 C 295.420 324.034,295.798 324.185,295.798 324.370 C 295.798 324.555,296.101 324.706,296.471 324.706 C 296.844 324.706,297.143 324.930,297.143 325.210 C 297.143 325.562,297.498 325.714,298.319 325.714 C 298.966 325.714,299.496 325.866,299.496 326.050 C 299.496 326.235,299.874 326.387,300.336 326.387 C 300.798 326.387,301.176 326.538,301.176 326.723 C 301.176 326.908,301.555 327.059,302.017 327.059 C 302.540 327.059,302.857 327.249,302.857 327.563 C 302.857 327.915,303.212 328.067,304.034 328.067 C 304.681 328.067,305.210 328.218,305.210 328.403 C 305.210 328.588,305.513 328.739,305.882 328.739 C 306.252 328.739,306.555 328.891,306.555 329.076 C 306.555 329.261,307.084 329.412,307.731 329.412 C 308.553 329.412,308.908 329.564,308.908 329.916 C 308.908 330.268,309.262 330.420,310.084 330.420 C 310.731 330.420,311.261 330.571,311.261 330.756 C 311.261 330.941,311.790 331.092,312.437 331.092 C 313.084 331.092,313.613 331.244,313.613 331.429 C 313.613 331.613,314.143 331.765,314.790 331.765 C 315.612 331.765,315.966 331.917,315.966 332.269 C 315.966 332.621,316.321 332.773,317.143 332.773 C 317.790 332.773,318.319 332.924,318.319 333.109 C 318.319 333.294,318.849 333.445,319.496 333.445 C 320.143 333.445,320.672 333.597,320.672 333.782 C 320.672 333.966,321.202 334.118,321.849 334.118 C 322.670 334.118,323.025 334.270,323.025 334.622 C 323.025 334.994,323.414 335.126,324.510 335.126 C 325.342 335.126,326.052 335.298,326.125 335.518 C 326.339 336.161,335.857 336.110,336.567 335.462 C 337.618 334.504,338.124 334.118,338.329 334.118 C 338.716 334.118,339.355 333.279,339.803 332.185 C 340.049 331.584,340.458 331.092,340.713 331.092 C 341.691 331.092,341.346 322.910,340.336 322.152 C 339.874 321.805,339.496 321.303,339.496 321.036 C 339.496 320.590,336.225 317.328,335.766 317.316 C 335.378 317.306,334.118 316.051,334.118 315.675 C 334.118 315.465,333.960 315.294,333.766 315.294 C 333.310 315.294,331.765 313.749,331.765 313.293 C 331.765 313.099,331.563 312.941,331.317 312.941 C 331.071 312.941,330.657 312.525,330.398 312.017 C 330.138 311.508,329.432 310.611,328.828 310.023 C 328.225 309.434,327.731 308.856,327.731 308.738 C 327.731 308.390,326.801 307.563,326.411 307.563 C 326.212 307.563,326.050 307.261,326.050 306.891 C 326.050 306.521,325.899 306.218,325.714 306.218 C 325.529 306.218,325.378 306.056,325.378 305.858 C 325.378 305.393,324.523 304.538,324.058 304.538 C 323.860 304.538,323.697 304.273,323.697 303.950 C 323.697 303.439,323.314 302.865,321.687 300.939 C 321.499 300.715,321.345 300.375,321.345 300.182 C 321.345 299.990,321.193 299.832,321.008 299.832 C 320.824 299.832,320.672 299.454,320.672 298.992 C 320.672 298.529,320.521 298.151,320.336 298.151 C 320.151 298.151,320.000 297.849,320.000 297.479 C 320.000 297.106,319.776 296.807,319.496 296.807 C 319.182 296.807,318.992 296.489,318.992 295.966 C 318.992 295.504,318.840 295.126,318.655 295.126 C 318.471 295.126,318.319 294.748,318.319 294.286 C 318.319 293.824,318.168 293.445,317.983 293.445 C 317.798 293.445,317.647 293.143,317.647 292.773 C 317.647 292.400,317.423 292.101,317.143 292.101 C 316.829 292.101,316.639 291.783,316.639 291.261 C 316.639 290.798,316.487 290.420,316.303 290.420 C 316.118 290.420,315.966 290.042,315.966 289.580 C 315.966 289.118,315.815 288.739,315.630 288.739 C 315.445 288.739,315.294 288.210,315.294 287.563 C 315.294 286.741,315.142 286.387,314.790 286.387 C 314.510 286.387,314.286 286.088,314.286 285.714 C 314.286 285.345,314.134 285.042,313.950 285.042 C 313.765 285.042,313.613 284.513,313.613 283.866 C 313.613 283.218,313.462 282.689,313.277 282.689 C 313.092 282.689,312.941 282.160,312.941 281.513 C 312.941 280.866,312.790 280.336,312.605 280.336 C 312.420 280.336,312.269 279.958,312.269 279.496 C 312.269 278.973,312.078 278.655,311.765 278.655 C 311.413 278.655,311.261 278.301,311.261 277.479 C 311.261 276.832,311.109 276.303,310.924 276.303 C 310.739 276.303,310.588 275.773,310.588 275.126 C 310.588 274.479,310.437 273.950,310.252 273.950 C 310.067 273.950,309.916 273.798,309.916 273.613 C 309.916 273.394,315.350 273.277,325.546 273.277 C 339.216 273.277,341.176 273.214,341.176 272.773 C 341.176 272.354,341.830 272.269,345.042 272.269 C 347.395 272.269,348.908 272.137,348.908 271.933 C 348.908 271.748,349.739 271.597,350.756 271.597 C 351.773 271.597,352.605 271.445,352.605 271.261 C 352.605 271.076,353.361 270.924,354.286 270.924 C 355.556 270.924,355.966 270.801,355.966 270.420 C 355.966 270.068,356.321 269.916,357.143 269.916 C 357.790 269.916,358.319 269.765,358.319 269.580 C 358.319 269.395,358.849 269.244,359.496 269.244 C 360.143 269.244,360.672 269.092,360.672 268.908 C 360.672 268.723,361.202 268.571,361.849 268.571 C 362.496 268.571,363.025 268.420,363.025 268.235 C 363.025 268.050,363.328 267.899,363.697 267.899 C 364.071 267.899,364.370 267.675,364.370 267.395 C 364.370 267.081,364.687 266.891,365.210 266.891 C 365.672 266.891,366.050 266.739,366.050 266.555 C 366.050 266.370,366.429 266.218,366.891 266.218 C 367.353 266.218,367.731 266.067,367.731 265.882 C 367.731 265.697,368.034 265.546,368.403 265.546 C 368.773 265.546,369.076 265.356,369.076 265.124 C 369.076 264.892,369.567 264.485,370.168 264.220 C 370.769 263.956,371.444 263.578,371.669 263.382 C 372.796 262.397,373.109 262.185,373.431 262.185 C 373.624 262.185,373.782 262.043,373.782 261.870 C 373.782 261.698,374.311 261.365,374.958 261.131 C 375.605 260.897,376.134 260.574,376.134 260.413 C 376.134 260.002,377.022 259.160,377.455 259.160 C 377.653 259.160,377.816 259.046,377.817 258.908 C 377.819 258.769,378.345 258.298,378.987 257.861 C 380.700 256.694,381.513 255.937,381.513 255.507 C 381.513 255.297,381.671 255.126,381.864 255.126 C 382.195 255.126,383.866 253.635,383.866 253.340 C 383.866 253.265,384.395 252.642,385.042 251.956 C 385.689 251.270,386.218 250.492,386.218 250.228 C 386.218 249.964,386.381 249.748,386.579 249.748 C 386.965 249.748,387.899 248.922,387.899 248.581 C 387.899 248.467,388.277 247.966,388.739 247.468 C 389.202 246.969,389.580 246.404,389.580 246.212 C 389.580 246.020,389.882 245.645,390.252 245.378 C 390.622 245.112,390.924 244.549,390.924 244.127 C 390.924 243.686,391.129 243.361,391.407 243.361 C 391.672 243.361,392.081 242.832,392.315 242.185 C 392.549 241.538,392.861 241.008,393.009 241.008 C 393.156 241.008,393.277 240.706,393.277 240.336 C 393.277 239.963,393.501 239.664,393.782 239.664 C 394.095 239.664,394.286 239.346,394.286 238.824 C 394.286 238.361,394.437 237.983,394.622 237.983 C 394.807 237.983,394.958 237.605,394.958 237.143 C 394.958 236.681,395.109 236.303,395.294 236.303 C 395.479 236.303,395.630 236.000,395.630 235.630 C 395.630 235.257,395.854 234.958,396.134 234.958 C 396.487 234.958,396.639 234.603,396.639 233.782 C 396.639 233.134,396.790 232.605,396.975 232.605 C 397.160 232.605,397.311 232.227,397.311 231.765 C 397.311 231.303,397.462 230.924,397.647 230.924 C 397.832 230.924,397.983 230.244,397.983 229.412 C 397.983 228.291,398.114 227.899,398.487 227.899 C 398.837 227.899,398.992 227.547,398.992 226.751 C 398.992 226.119,399.181 225.539,399.412 225.462 C 399.746 225.351,399.832 212.631,399.832 163.361 C 399.832 114.092,399.746 101.372,399.412 101.261 C 399.160 101.177,398.992 100.525,398.992 99.636 C 398.992 98.540,398.859 98.151,398.487 98.151 C 398.135 98.151,397.983 97.796,397.983 96.975 C 397.983 96.328,397.832 95.798,397.647 95.798 C 397.462 95.798,397.311 95.269,397.311 94.622 C 397.311 93.975,397.160 93.445,396.975 93.445 C 396.790 93.445,396.639 93.067,396.639 92.605 C 396.639 92.082,396.448 91.765,396.134 91.765 C 395.854 91.765,395.630 91.466,395.630 91.092 C 395.630 90.723,395.479 90.420,395.294 90.420 C 395.109 90.420,394.958 90.042,394.958 89.580 C 394.958 89.118,394.807 88.739,394.622 88.739 C 394.437 88.739,394.286 88.361,394.286 87.899 C 394.286 87.376,394.095 87.059,393.782 87.059 C 393.501 87.059,393.277 86.760,393.277 86.387 C 393.277 86.017,393.126 85.714,392.941 85.714 C 392.756 85.714,392.605 85.401,392.605 85.018 C 392.605 84.274,391.878 83.361,391.285 83.361 C 391.086 83.361,390.924 83.017,390.924 82.595 C 390.924 82.174,390.622 81.611,390.252 81.345 C 389.882 81.078,389.580 80.515,389.580 80.094 C 389.580 79.672,389.418 79.328,389.220 79.328 C 388.828 79.328,387.899 78.500,387.899 78.151 C 387.899 78.032,387.710 77.724,387.479 77.467 C 386.574 76.457,386.218 75.987,386.218 75.797 C 386.218 75.457,384.586 73.950,384.217 73.950 C 384.024 73.950,383.866 73.791,383.866 73.598 C 383.866 73.142,382.320 71.597,381.864 71.597 C 381.671 71.597,381.513 71.439,381.513 71.245 C 381.513 70.863,380.000 69.244,379.643 69.244 C 379.523 69.244,379.127 68.866,378.763 68.403 C 378.400 67.941,377.880 67.563,377.607 67.563 C 377.080 67.563,375.462 66.105,375.462 65.629 C 375.462 65.473,374.933 65.154,374.286 64.920 C 373.639 64.686,373.109 64.353,373.109 64.180 C 373.109 64.007,372.919 63.866,372.686 63.866 C 372.453 63.866,371.854 63.487,371.356 63.025 C 370.857 62.563,370.140 62.185,369.763 62.185 C 369.385 62.185,369.076 62.034,369.076 61.849 C 369.076 61.664,368.865 61.513,368.607 61.513 C 368.350 61.513,368.052 61.286,367.946 61.008 C 367.839 60.731,367.454 60.504,367.089 60.504 C 366.725 60.504,366.333 60.353,366.218 60.168 C 366.104 59.983,365.642 59.832,365.190 59.832 C 364.739 59.832,364.370 59.681,364.370 59.496 C 364.370 59.311,364.067 59.160,363.697 59.160 C 363.324 59.160,363.025 58.936,363.025 58.655 C 363.025 58.342,362.708 58.151,362.185 58.151 C 361.723 58.151,361.345 58.000,361.345 57.815 C 361.345 57.630,360.815 57.479,360.168 57.479 C 359.521 57.479,358.992 57.328,358.992 57.143 C 358.992 56.958,358.462 56.807,357.815 56.807 C 356.993 56.807,356.639 56.655,356.639 56.303 C 356.639 55.929,356.246 55.798,355.126 55.798 C 354.294 55.798,353.613 55.647,353.613 55.462 C 353.613 55.277,352.857 55.126,351.933 55.126 C 351.008 55.126,350.252 54.975,350.252 54.790 C 350.252 54.591,349.020 54.454,347.227 54.454 C 344.762 54.454,344.202 54.360,344.202 53.950 C 344.202 53.506,341.102 53.445,318.319 53.445 C 295.537 53.445,292.437 53.506,292.437 53.950 M125.126 62.688 C 124.622 63.260,124.548 67.563,125.042 67.563 C 125.263 67.563,125.378 75.238,125.378 89.916 C 125.378 104.594,125.494 112.269,125.714 112.269 C 125.931 112.269,126.050 115.742,126.050 122.017 C 126.050 130.458,126.118 131.765,126.555 131.765 C 126.832 131.765,127.059 131.916,127.059 132.101 C 127.059 132.672,136.083 132.536,136.663 131.957 C 137.062 131.558,137.143 129.367,137.143 119.016 C 137.143 110.932,137.261 106.555,137.479 106.555 C 137.699 106.555,137.815 99.440,137.815 85.882 C 137.815 67.731,137.877 65.210,138.319 65.210 C 138.671 65.210,138.824 64.855,138.824 64.034 C 138.824 63.212,138.671 62.857,138.319 62.857 C 138.042 62.857,137.815 62.706,137.815 62.521 C 137.815 61.946,125.638 62.106,125.126 62.688 M68.788 65.714 C 68.510 65.992,67.828 66.218,67.271 66.218 C 66.714 66.218,66.165 66.370,66.050 66.555 C 65.936 66.739,65.171 66.891,64.350 66.891 C 63.529 66.891,62.857 67.042,62.857 67.227 C 62.857 67.412,62.193 67.563,61.381 67.563 C 60.378 67.563,59.842 67.725,59.710 68.067 C 59.604 68.345,59.210 68.571,58.834 68.571 C 58.231 68.571,58.151 68.786,58.151 70.420 C 58.151 71.437,58.303 72.269,58.487 72.269 C 58.672 72.269,58.824 72.798,58.824 73.445 C 58.824 74.267,58.976 74.622,59.328 74.622 C 59.701 74.622,59.832 75.014,59.832 76.134 C 59.832 76.966,59.983 77.647,60.168 77.647 C 60.353 77.647,60.504 78.328,60.504 79.160 C 60.504 79.992,60.655 80.672,60.840 80.672 C 61.025 80.672,61.176 81.115,61.176 81.657 C 61.176 82.198,61.403 82.868,61.681 83.145 C 61.964 83.428,62.185 84.250,62.185 85.018 C 62.185 85.771,62.336 86.387,62.521 86.387 C 62.706 86.387,62.857 87.067,62.857 87.899 C 62.857 88.731,62.988 89.412,63.149 89.412 C 63.310 89.412,63.527 90.051,63.632 90.833 C 63.736 91.615,63.983 92.308,64.180 92.374 C 64.377 92.439,64.538 93.001,64.538 93.622 C 64.538 94.242,64.689 94.844,64.874 94.958 C 65.059 95.072,65.210 95.753,65.210 96.471 C 65.210 97.188,65.344 97.858,65.507 97.959 C 65.671 98.060,65.907 98.826,66.032 99.660 C 66.157 100.494,66.402 101.176,66.575 101.176 C 66.749 101.176,66.894 101.668,66.898 102.269 C 66.902 102.870,67.201 103.739,67.563 104.202 C 67.944 104.689,68.223 105.572,68.228 106.303 C 68.233 107.196,68.382 107.563,68.739 107.563 C 69.113 107.563,69.244 107.955,69.244 109.076 C 69.244 109.908,69.395 110.588,69.580 110.588 C 69.765 110.588,69.916 111.118,69.916 111.765 C 69.916 112.412,70.067 112.941,70.252 112.941 C 70.437 112.941,70.588 113.622,70.588 114.454 C 70.588 115.574,70.719 115.966,71.092 115.966 C 71.466 115.966,71.597 116.359,71.597 117.479 C 71.597 118.311,71.748 118.992,71.933 118.992 C 72.118 118.992,72.269 119.512,72.269 120.148 C 72.269 120.784,72.420 121.398,72.605 121.513 C 72.790 121.627,72.941 122.321,72.941 123.056 C 72.941 123.932,73.114 124.457,73.445 124.584 C 73.788 124.716,73.950 125.252,73.950 126.254 C 73.950 127.067,74.101 127.731,74.286 127.731 C 74.471 127.731,74.622 128.412,74.622 129.244 C 74.622 130.076,74.773 130.756,74.958 130.756 C 75.143 130.756,75.294 131.270,75.294 131.897 C 75.294 132.579,75.488 133.112,75.778 133.223 C 76.070 133.335,76.304 133.984,76.366 134.856 C 76.474 136.354,78.319 137.424,78.319 135.989 C 78.319 135.581,78.698 135.462,80.000 135.462 C 80.924 135.462,81.681 135.311,81.681 135.126 C 81.681 134.941,82.361 134.790,83.193 134.790 C 84.025 134.790,84.706 134.639,84.706 134.454 C 84.706 134.269,85.235 134.118,85.882 134.118 C 86.704 134.118,87.059 133.966,87.059 133.613 C 87.059 133.336,87.210 133.109,87.395 133.109 C 87.580 133.109,87.731 132.807,87.731 132.437 C 87.731 132.067,87.580 131.765,87.395 131.765 C 87.210 131.765,87.059 131.084,87.059 130.252 C 87.059 129.420,86.908 128.739,86.723 128.739 C 86.538 128.739,86.387 128.132,86.387 127.390 C 86.387 126.648,86.244 125.779,86.069 125.458 C 85.894 125.137,85.660 124.307,85.549 123.613 C 85.438 122.920,85.203 122.353,85.027 122.353 C 84.850 122.353,84.706 121.832,84.706 121.196 C 84.706 120.560,84.555 119.946,84.370 119.832 C 84.185 119.718,84.034 119.028,84.034 118.299 C 84.034 117.571,83.882 116.975,83.697 116.975 C 83.513 116.975,83.361 116.381,83.361 115.654 C 83.361 114.928,83.134 114.107,82.857 113.830 C 82.574 113.546,82.353 112.725,82.353 111.957 C 82.353 111.204,82.202 110.588,82.017 110.588 C 81.832 110.588,81.681 109.908,81.681 109.076 C 81.681 108.244,81.529 107.563,81.345 107.563 C 81.160 107.563,81.008 106.878,81.008 106.040 C 81.008 104.996,80.850 104.456,80.504 104.323 C 80.162 104.192,80.000 103.656,80.000 102.653 C 80.000 101.841,79.849 101.176,79.664 101.176 C 79.479 101.176,79.328 100.647,79.328 100.000 C 79.328 99.353,79.196 98.824,79.035 98.824 C 78.874 98.824,78.637 97.616,78.508 96.140 C 78.379 94.665,78.133 93.370,77.961 93.263 C 77.788 93.157,77.647 92.473,77.647 91.745 C 77.647 91.016,77.496 90.420,77.311 90.420 C 77.126 90.420,76.975 89.748,76.975 88.927 C 76.975 88.106,76.824 87.341,76.639 87.227 C 76.454 87.113,76.303 86.509,76.303 85.887 C 76.303 85.264,76.076 84.527,75.798 84.250 C 75.515 83.967,75.294 83.145,75.294 82.377 C 75.294 81.624,75.143 81.008,74.958 81.008 C 74.773 81.008,74.622 80.479,74.622 79.832 C 74.622 79.185,74.471 78.655,74.286 78.655 C 74.101 78.655,73.950 77.991,73.950 77.179 C 73.950 76.176,73.788 75.640,73.445 75.509 C 73.100 75.376,72.941 74.836,72.941 73.792 C 72.941 72.954,72.790 72.269,72.605 72.269 C 72.420 72.269,72.269 71.588,72.269 70.756 C 72.269 69.924,72.118 69.244,71.933 69.244 C 71.748 69.244,71.597 68.725,71.597 68.091 C 71.597 67.457,71.370 66.712,71.092 66.435 C 70.815 66.157,70.588 65.768,70.588 65.570 C 70.588 65.036,69.368 65.134,68.788 65.714 M188.796 65.434 C 188.672 65.557,188.571 66.087,188.571 66.611 C 188.571 67.134,188.420 67.563,188.235 67.563 C 188.050 67.563,187.899 68.244,187.899 69.076 C 187.899 69.908,187.748 70.588,187.563 70.588 C 187.378 70.588,187.227 71.128,187.227 71.789 C 187.227 72.449,187.000 73.216,186.723 73.493 C 186.445 73.771,186.218 74.516,186.218 75.150 C 186.218 75.784,186.067 76.303,185.882 76.303 C 185.697 76.303,185.546 76.983,185.546 77.815 C 185.546 78.647,185.395 79.328,185.210 79.328 C 185.025 79.328,184.874 79.992,184.874 80.804 C 184.874 81.807,184.712 82.343,184.370 82.474 C 184.024 82.607,183.866 83.147,183.866 84.191 C 183.866 85.029,183.714 85.714,183.529 85.714 C 183.345 85.714,183.193 86.235,183.193 86.871 C 183.193 87.507,183.042 88.121,182.857 88.235 C 182.672 88.350,182.521 89.027,182.521 89.740 C 182.521 90.453,182.355 91.092,182.152 91.159 C 181.949 91.227,181.702 91.996,181.604 92.868 C 181.506 93.740,181.294 94.454,181.133 94.454 C 180.972 94.454,180.840 95.134,180.840 95.966 C 180.840 96.798,180.689 97.479,180.504 97.479 C 180.319 97.479,180.168 98.223,180.168 99.132 C 180.168 100.149,180.006 100.843,179.748 100.936 C 179.412 101.058,179.412 101.231,179.748 101.800 C 180.288 102.715,180.277 102.857,179.664 102.857 C 179.290 102.857,179.160 103.249,179.160 104.370 C 179.160 105.202,179.008 105.882,178.824 105.882 C 178.639 105.882,178.487 106.563,178.487 107.395 C 178.487 108.227,178.336 108.908,178.151 108.908 C 177.966 108.908,177.815 109.664,177.815 110.588 C 177.815 111.858,177.692 112.269,177.311 112.269 C 176.937 112.269,176.807 112.661,176.807 113.782 C 176.807 114.613,176.655 115.294,176.471 115.294 C 176.286 115.294,176.134 115.975,176.134 116.807 C 176.134 117.639,175.983 118.319,175.798 118.319 C 175.613 118.319,175.462 118.756,175.462 119.289 C 175.462 119.823,175.236 120.693,174.960 121.222 C 174.684 121.752,174.457 122.601,174.456 123.109 C 174.455 123.618,174.303 124.034,174.118 124.034 C 173.933 124.034,173.782 124.714,173.782 125.546 C 173.782 126.378,173.630 127.059,173.445 127.059 C 173.261 127.059,173.109 127.739,173.109 128.571 C 173.109 129.403,172.958 130.084,172.773 130.084 C 172.586 130.084,172.437 130.980,172.437 132.101 C 172.437 133.894,172.512 134.118,173.109 134.118 C 173.479 134.118,173.782 134.269,173.782 134.454 C 173.782 134.639,174.462 134.790,175.294 134.790 C 176.126 134.790,176.807 134.941,176.807 135.126 C 176.807 135.311,177.336 135.462,177.983 135.462 C 178.822 135.462,179.160 135.612,179.160 135.983 C 179.160 136.934,182.995 136.512,183.133 135.546 C 183.192 135.130,183.381 134.790,183.553 134.790 C 183.725 134.790,183.866 134.125,183.866 133.313 C 183.866 132.311,184.027 131.775,184.370 131.643 C 184.684 131.523,184.874 131.010,184.874 130.282 C 184.874 129.641,185.025 129.022,185.210 128.908 C 185.395 128.793,185.546 128.104,185.546 127.375 C 185.546 126.647,185.697 126.050,185.882 126.050 C 186.067 126.050,186.218 125.386,186.218 124.574 C 186.218 123.571,186.380 123.035,186.723 122.904 C 187.055 122.776,187.227 122.250,187.227 121.355 C 187.227 120.610,187.378 120.000,187.563 120.000 C 187.748 120.000,187.899 119.319,187.899 118.487 C 187.899 117.655,188.050 116.975,188.235 116.975 C 188.420 116.975,188.576 116.483,188.582 115.882 C 188.588 115.282,188.815 114.496,189.086 114.137 C 189.358 113.779,189.580 112.984,189.580 112.373 C 189.580 111.761,189.731 111.261,189.916 111.261 C 190.101 111.261,190.252 110.580,190.252 109.748 C 190.252 108.916,190.403 108.235,190.588 108.235 C 190.773 108.235,190.924 107.706,190.924 107.059 C 190.924 106.237,191.076 105.882,191.429 105.882 C 191.802 105.882,191.933 105.490,191.933 104.370 C 191.933 103.538,192.084 102.857,192.269 102.857 C 192.454 102.857,192.605 102.418,192.605 101.881 C 192.605 101.343,192.886 100.322,193.230 99.612 C 194.177 97.653,194.696 96.100,194.871 94.704 C 194.958 94.009,195.164 93.358,195.330 93.255 C 195.495 93.153,195.630 92.492,195.630 91.786 C 195.630 91.080,195.841 90.327,196.099 90.113 C 196.539 89.748,196.728 89.033,197.191 85.966 C 197.296 85.273,197.517 84.706,197.682 84.706 C 197.848 84.706,197.983 84.090,197.983 83.337 C 197.983 82.569,198.204 81.748,198.487 81.465 C 198.765 81.187,198.992 80.451,198.992 79.828 C 198.992 79.205,199.143 78.602,199.328 78.487 C 199.513 78.373,199.664 77.608,199.664 76.787 C 199.664 75.966,199.815 75.294,200.000 75.294 C 200.185 75.294,200.336 74.765,200.336 74.118 C 200.336 73.471,200.487 72.941,200.672 72.941 C 200.857 72.941,201.008 72.269,201.008 71.448 C 201.008 70.627,201.160 69.862,201.345 69.748 C 201.994 69.347,201.689 68.571,200.881 68.571 C 200.442 68.571,199.894 68.345,199.664 68.067 C 199.426 67.780,198.693 67.563,197.962 67.563 C 197.256 67.563,196.585 67.412,196.471 67.227 C 196.356 67.042,195.742 66.891,195.106 66.891 C 194.470 66.891,193.950 66.739,193.950 66.555 C 193.950 66.370,193.269 66.218,192.437 66.218 C 191.317 66.218,190.924 66.088,190.924 65.714 C 190.924 65.200,189.250 64.980,188.796 65.434 M316.907 103.227 C 316.849 103.401,316.204 103.566,315.472 103.594 C 314.741 103.621,313.759 103.844,313.290 104.089 C 312.821 104.333,312.021 104.535,311.513 104.536 C 310.813 104.537,310.588 104.701,310.588 105.210 C 310.588 105.580,310.437 105.882,310.252 105.882 C 310.067 105.882,309.916 106.563,309.916 107.395 C 309.916 108.515,309.785 108.908,309.412 108.908 C 309.031 108.908,308.908 109.318,308.908 110.588 C 308.908 111.513,308.756 112.269,308.571 112.269 C 308.387 112.269,308.235 112.950,308.235 113.782 C 308.235 114.613,308.084 115.294,307.899 115.294 C 307.714 115.294,307.563 115.975,307.563 116.807 C 307.563 118.820,310.293 118.533,312.756 116.261 C 312.932 116.099,313.471 115.966,313.953 115.966 C 314.436 115.966,315.124 115.696,315.483 115.365 C 315.841 115.035,316.723 114.726,317.443 114.679 C 318.162 114.633,319.009 114.456,319.324 114.288 C 319.691 114.091,320.030 114.114,320.267 114.351 C 320.537 114.621,320.848 114.588,321.411 114.229 C 322.053 113.821,322.328 113.810,323.021 114.166 C 323.703 114.516,323.981 114.513,324.537 114.149 C 325.105 113.777,325.289 113.779,325.648 114.162 C 325.884 114.415,326.676 114.622,327.408 114.622 C 328.140 114.622,328.739 114.773,328.739 114.958 C 328.739 115.143,329.351 115.294,330.099 115.294 C 331.102 115.294,331.680 115.515,332.299 116.134 C 332.762 116.597,333.511 116.975,333.965 116.975 C 334.566 116.975,334.790 117.157,334.790 117.647 C 334.790 118.140,335.014 118.319,335.630 118.319 C 336.092 118.319,336.471 118.513,336.471 118.749 C 336.471 118.986,336.773 119.397,337.143 119.664 C 337.513 119.930,337.815 120.349,337.815 120.594 C 337.815 120.840,338.193 121.391,338.655 121.819 C 339.250 122.370,339.496 122.950,339.496 123.800 C 339.496 124.461,339.626 125.083,339.784 125.181 C 340.180 125.425,340.207 129.412,339.813 129.412 C 339.639 129.412,339.496 129.941,339.496 130.588 C 339.496 131.235,339.345 131.765,339.160 131.765 C 338.975 131.765,338.824 132.143,338.824 132.605 C 338.824 133.067,338.679 133.445,338.503 133.445 C 338.086 133.445,336.471 135.061,336.471 135.477 C 336.471 135.654,336.244 135.798,335.966 135.798 C 335.686 135.798,335.462 136.097,335.462 136.471 C 335.462 136.861,335.238 137.143,334.928 137.143 C 334.634 137.143,333.749 137.807,332.960 138.618 C 332.148 139.454,331.068 140.194,330.469 140.325 C 329.888 140.453,329.412 140.678,329.412 140.826 C 329.412 140.973,328.542 141.529,327.479 142.060 C 326.416 142.591,325.471 143.101,325.378 143.194 C 325.286 143.287,324.756 143.589,324.202 143.866 C 323.647 144.143,323.009 144.521,322.785 144.706 C 322.560 144.891,322.151 145.231,321.875 145.462 C 321.599 145.693,321.133 145.882,320.839 145.882 C 320.546 145.882,319.927 146.261,319.465 146.723 C 319.003 147.185,318.438 147.563,318.210 147.563 C 317.982 147.563,317.577 147.866,317.311 148.235 C 317.044 148.605,316.671 148.909,316.480 148.911 C 316.290 148.912,315.765 149.381,315.314 149.952 C 314.863 150.522,314.145 151.122,313.718 151.285 C 313.259 151.459,312.941 151.859,312.941 152.261 C 312.941 152.727,312.720 152.941,312.237 152.941 C 311.816 152.941,311.463 153.211,311.358 153.613 C 311.261 153.983,311.048 154.286,310.885 154.286 C 310.722 154.286,310.588 154.461,310.588 154.674 C 310.588 154.888,310.210 155.558,309.748 156.164 C 309.286 156.770,308.908 157.503,308.908 157.793 C 308.908 158.082,308.756 158.319,308.571 158.319 C 308.387 158.319,308.235 159.000,308.235 159.832 C 308.235 160.664,308.084 161.345,307.899 161.345 C 307.714 161.345,307.563 162.085,307.563 162.989 C 307.563 164.141,307.412 164.692,307.059 164.827 C 306.398 165.081,306.412 166.532,307.083 167.203 C 307.563 167.683,307.562 167.731,307.067 167.731 C 306.088 167.731,306.487 172.235,307.479 172.376 C 307.895 172.435,308.235 172.624,308.235 172.796 C 308.235 172.969,308.916 173.109,309.748 173.109 C 310.580 173.109,311.261 173.261,311.261 173.445 C 311.261 173.630,311.855 173.782,312.581 173.782 C 313.307 173.782,314.128 174.008,314.406 174.286 C 314.683 174.563,315.375 174.790,315.942 174.790 C 316.510 174.790,316.975 174.941,316.975 175.126 C 316.975 175.311,317.429 175.462,317.983 175.462 C 319.122 175.462,319.123 175.460,318.997 169.836 C 318.949 167.697,319.056 166.946,319.467 166.535 C 319.760 166.242,320.000 165.484,320.000 164.850 C 320.000 164.216,320.151 163.697,320.336 163.697 C 320.521 163.697,320.672 163.204,320.672 162.601 C 320.672 161.823,320.917 161.320,321.513 160.873 C 321.975 160.526,322.353 159.961,322.353 159.617 C 322.353 159.273,322.559 158.992,322.812 158.992 C 323.064 158.992,324.150 158.160,325.225 157.143 C 326.300 156.126,327.385 155.294,327.634 155.294 C 327.884 155.294,328.175 155.067,328.282 154.790 C 328.388 154.513,328.686 154.286,328.944 154.286 C 329.201 154.286,329.412 154.134,329.412 153.950 C 329.412 153.765,329.714 153.613,330.084 153.613 C 330.454 153.613,330.756 153.462,330.756 153.277 C 330.756 153.092,331.064 152.941,331.439 152.941 C 331.815 152.941,332.209 152.714,332.315 152.437 C 332.422 152.160,332.795 151.933,333.145 151.933 C 333.495 151.933,333.782 151.782,333.782 151.597 C 333.782 151.412,334.008 151.261,334.286 151.261 C 334.563 151.261,334.790 151.109,334.790 150.924 C 334.790 150.739,335.074 150.588,335.421 150.588 C 335.768 150.588,336.240 150.361,336.471 150.084 C 336.701 149.807,337.069 149.580,337.289 149.580 C 337.509 149.580,337.987 149.302,338.351 148.962 C 338.716 148.623,339.425 148.242,339.927 148.116 C 340.429 147.989,340.840 147.738,340.840 147.557 C 340.840 147.375,340.998 147.227,341.192 147.227 C 341.385 147.227,341.907 146.887,342.352 146.471 C 343.571 145.331,344.151 144.874,344.380 144.874 C 344.839 144.874,345.546 143.870,345.546 143.217 C 345.546 142.737,345.762 142.521,346.242 142.521 C 347.126 142.521,347.899 141.758,347.899 140.888 C 347.899 140.446,348.159 140.178,348.655 140.107 C 349.141 140.038,349.450 139.730,349.519 139.244 C 349.578 138.828,349.767 138.487,349.939 138.487 C 350.111 138.487,350.252 138.185,350.252 137.815 C 350.252 137.442,350.476 137.143,350.756 137.143 C 351.108 137.143,351.261 136.788,351.261 135.966 C 351.261 135.319,351.412 134.790,351.597 134.790 C 351.782 134.790,351.933 134.563,351.933 134.286 C 351.933 134.008,352.084 133.782,352.269 133.782 C 352.454 133.782,352.605 133.185,352.605 132.457 C 352.605 131.728,352.756 131.039,352.941 130.924 C 353.406 130.637,353.363 129.296,352.874 128.807 C 352.560 128.493,352.598 128.403,353.042 128.403 C 353.850 128.403,353.887 123.347,353.085 122.545 C 352.795 122.255,352.719 122.017,352.917 122.017 C 353.115 122.017,353.277 121.790,353.277 121.513 C 353.277 121.235,353.126 121.008,352.941 121.008 C 352.756 121.008,352.605 120.630,352.605 120.168 C 352.605 119.706,352.424 119.328,352.202 119.328 C 351.902 119.328,351.896 119.230,352.178 118.948 C 352.625 118.501,352.196 117.568,351.008 116.404 C 350.592 115.996,350.252 115.333,350.252 114.929 C 350.252 114.146,349.101 112.941,348.352 112.941 C 348.103 112.941,347.899 112.716,347.899 112.441 C 347.899 111.769,346.858 110.588,346.266 110.588 C 346.004 110.588,345.338 110.059,344.785 109.412 C 344.232 108.765,343.530 108.235,343.225 108.235 C 342.919 108.235,342.452 107.933,342.186 107.565 C 341.920 107.196,341.206 106.801,340.599 106.687 C 339.992 106.573,339.496 106.345,339.496 106.181 C 339.496 106.017,339.202 105.882,338.843 105.882 C 338.485 105.882,338.097 105.731,337.983 105.546 C 337.869 105.361,337.482 105.210,337.123 105.210 C 336.764 105.210,336.471 105.078,336.471 104.917 C 336.471 104.756,335.866 104.527,335.126 104.409 C 334.387 104.290,333.782 104.044,333.782 103.862 C 333.782 103.679,333.101 103.529,332.269 103.529 C 331.437 103.529,330.756 103.378,330.756 103.193 C 330.756 102.712,328.959 102.777,328.429 103.277 C 328.072 103.614,327.952 103.612,327.826 103.268 C 327.636 102.749,317.080 102.709,316.907 103.227 M129.412 143.866 C 129.412 144.050,129.070 144.202,128.651 144.202 C 128.232 144.202,127.607 144.579,127.260 145.042 C 126.913 145.504,126.347 145.882,126.003 145.882 C 125.602 145.882,125.378 146.123,125.378 146.555 C 125.378 146.924,125.227 147.227,125.042 147.227 C 124.857 147.227,124.706 147.454,124.706 147.731 C 124.706 148.008,124.479 148.235,124.202 148.235 C 123.786 148.235,123.697 148.852,123.697 151.765 C 123.697 154.678,123.786 155.294,124.202 155.294 C 124.482 155.294,124.706 155.593,124.706 155.966 C 124.706 156.336,124.857 156.639,125.042 156.639 C 125.227 156.639,125.378 156.801,125.378 156.999 C 125.378 157.464,126.233 158.319,126.699 158.319 C 126.897 158.319,127.059 158.471,127.059 158.655 C 127.059 158.840,127.361 158.992,127.731 158.992 C 128.105 158.992,128.403 159.216,128.403 159.496 C 128.403 159.909,128.982 160.000,131.597 160.000 C 134.211 160.000,134.790 159.909,134.790 159.496 C 134.790 159.212,135.090 158.992,135.477 158.992 C 136.193 158.992,137.815 157.603,137.815 156.990 C 137.815 156.797,137.977 156.639,138.175 156.639 C 138.858 156.639,139.496 155.676,139.496 154.646 C 139.496 154.078,139.647 153.613,139.832 153.613 C 140.019 153.613,140.168 152.717,140.168 151.597 C 140.168 150.476,140.019 149.580,139.832 149.580 C 139.647 149.580,139.496 149.277,139.496 148.908 C 139.496 148.538,139.345 148.235,139.160 148.235 C 138.975 148.235,138.824 147.857,138.824 147.395 C 138.824 146.933,138.661 146.555,138.463 146.555 C 137.998 146.555,137.143 145.699,137.143 145.234 C 137.143 145.036,136.765 144.874,136.303 144.874 C 135.840 144.874,135.462 144.723,135.462 144.538 C 135.462 144.353,135.160 144.202,134.790 144.202 C 134.420 144.202,134.118 144.050,134.118 143.866 C 134.118 143.673,133.109 143.529,131.765 143.529 C 130.420 143.529,129.412 143.673,129.412 143.866 M85.714 145.546 C 85.714 145.731,85.334 145.882,84.869 145.882 C 83.747 145.882,81.681 147.081,81.681 147.731 C 81.681 148.063,80.761 148.908,80.399 148.908 C 80.055 148.908,79.649 149.921,79.470 151.227 C 79.410 151.672,79.202 152.193,79.008 152.387 C 78.559 152.836,78.547 154.286,78.992 154.286 C 79.176 154.286,79.328 154.957,79.328 155.778 C 79.328 156.600,79.479 157.365,79.664 157.479 C 79.849 157.593,80.000 157.905,80.000 158.171 C 80.000 158.728,82.438 161.345,82.958 161.345 C 83.149 161.345,83.368 161.534,83.445 161.765 C 83.546 162.066,84.612 162.185,87.226 162.185 C 89.839 162.185,90.906 162.066,91.008 161.765 C 91.085 161.534,91.438 161.345,91.793 161.345 C 92.147 161.345,92.437 161.193,92.437 161.008 C 92.437 160.824,92.609 160.672,92.820 160.672 C 93.296 160.672,94.093 159.656,94.107 159.030 C 94.113 158.774,94.496 158.214,94.958 157.786 C 95.992 156.827,96.279 151.261,95.294 151.261 C 94.956 151.261,94.790 150.923,94.790 150.237 C 94.790 149.639,94.475 148.877,94.034 148.404 C 93.618 147.959,93.082 147.361,92.844 147.075 C 92.606 146.789,92.114 146.555,91.751 146.555 C 91.389 146.555,91.092 146.403,91.092 146.218 C 91.092 146.034,90.651 145.882,90.112 145.882 C 89.573 145.882,89.068 145.693,88.990 145.462 C 88.881 145.137,88.720 145.149,88.276 145.515 C 87.842 145.874,87.608 145.894,87.313 145.599 C 86.836 145.122,85.714 145.085,85.714 145.546 M170.084 146.218 C 170.084 146.403,169.651 146.555,169.123 146.555 C 168.490 146.555,167.946 146.842,167.530 147.395 C 167.183 147.857,166.763 148.235,166.596 148.235 C 166.146 148.235,165.401 149.325,165.389 150.000 C 165.383 150.324,165.151 150.588,164.874 150.588 C 164.500 150.588,164.370 150.980,164.370 152.101 C 164.370 152.933,164.218 153.613,164.034 153.613 C 163.849 153.613,163.697 154.143,163.697 154.790 C 163.697 155.437,163.849 155.966,164.034 155.966 C 164.218 155.966,164.370 156.538,164.370 157.236 C 164.370 158.019,164.595 158.710,164.958 159.037 C 165.282 159.329,165.786 159.854,166.079 160.204 C 167.051 161.365,168.539 162.353,169.317 162.353 C 169.739 162.353,170.084 162.504,170.084 162.689 C 170.084 162.883,171.113 163.021,172.521 163.015 C 174.911 163.004,176.134 162.568,176.134 161.728 C 176.134 161.514,176.655 161.345,177.311 161.345 C 178.263 161.345,178.487 161.216,178.487 160.672 C 178.487 160.303,178.639 160.000,178.824 160.000 C 179.008 160.000,179.160 159.773,179.160 159.496 C 179.160 159.218,179.387 158.992,179.664 158.992 C 180.016 158.992,180.168 158.637,180.168 157.815 C 180.168 157.168,180.319 156.639,180.504 156.639 C 181.548 156.639,180.858 151.000,179.664 149.771 C 179.017 149.104,178.487 148.351,178.487 148.097 C 178.487 147.603,177.782 147.227,176.853 147.227 C 176.540 147.227,176.065 146.924,175.798 146.555 C 175.266 145.816,170.084 145.511,170.084 146.218 M305.776 184.142 C 305.465 184.202,305.210 184.391,305.210 184.562 C 305.210 184.734,304.983 184.874,304.706 184.874 C 304.429 184.874,304.202 185.006,304.202 185.168 C 304.202 185.330,303.765 185.549,303.232 185.656 C 302.536 185.795,302.161 186.141,301.903 186.879 C 301.706 187.445,301.310 187.998,301.024 188.108 C 300.667 188.245,300.504 188.758,300.504 189.748 C 300.504 190.747,300.342 191.251,299.977 191.391 C 299.431 191.601,299.609 192.990,300.212 193.221 C 300.373 193.283,300.504 194.001,300.504 194.818 C 300.504 195.634,300.628 196.303,300.778 196.303 C 300.929 196.303,301.393 196.908,301.808 197.647 C 302.224 198.387,302.781 198.992,303.047 198.992 C 303.312 198.992,303.529 199.110,303.529 199.255 C 303.529 199.749,305.479 200.672,306.522 200.672 C 307.095 200.672,307.563 200.824,307.563 201.008 C 307.563 201.193,307.932 201.345,308.384 201.345 C 308.835 201.345,309.298 201.193,309.412 201.008 C 309.526 200.824,310.046 200.672,310.567 200.672 C 311.088 200.672,311.703 200.445,311.933 200.168 C 312.163 199.891,312.635 199.664,312.982 199.664 C 313.329 199.664,313.613 199.530,313.613 199.367 C 313.613 199.204,313.914 198.991,314.282 198.895 C 314.649 198.799,315.101 198.324,315.285 197.839 C 315.469 197.354,315.849 196.870,316.129 196.762 C 316.447 196.640,316.639 196.134,316.639 195.414 C 316.639 194.781,316.872 193.906,317.157 193.471 C 317.623 192.759,317.623 192.629,317.157 192.163 C 316.860 191.866,316.639 191.061,316.639 190.276 C 316.639 189.523,316.487 188.908,316.303 188.908 C 316.118 188.908,315.966 188.639,315.966 188.310 C 315.966 187.639,314.188 185.546,313.618 185.546 C 313.415 185.546,312.924 185.244,312.528 184.874 C 312.131 184.504,311.343 184.179,310.777 184.152 C 308.519 184.044,306.312 184.039,305.776 184.142 " stroke="none" fill="#04acf4" fill-rule="evenodd"></path><path id="path1" d="" stroke="none" fill="#08acf4" fill-rule="evenodd"></path><path id="path2" d="" stroke="none" fill="#08acf4" fill-rule="evenodd"></path><path id="path3" d="" stroke="none" fill="#08acf4" fill-rule="evenodd"></path><path id="path4" d="" stroke="none" fill="#08acf4" fill-rule="evenodd"></path></g></svg>